STARTFONT 2.1
FONT -FontForge-Fredoka One-Book-R-Normal--38-360-75-75-P-220-ISO10646-1
SIZE 36 75 75
FONTBOUNDINGBOX 70 46 -5 -9
COMMENT "Generated by fontforge, http://fontforge.sourceforge.net"
COMMENT "Copyright (c) 2011 Milena B Brandao (milenabbrandao@gmail.com), with Reserved Font Name "Fredoka""
STARTPROPERTIES 39
FOUNDRY "FontForge"
FAMILY_NAME "Fredoka One"
WEIGHT_NAME "Book"
SLANT "R"
SETWIDTH_NAME "Normal"
ADD_STYLE_NAME ""
PIXEL_SIZE 38
POINT_SIZE 360
RESOLUTION_X 75
RESOLUTION_Y 75
SPACING "P"
AVERAGE_WIDTH 220
CHARSET_REGISTRY "ISO10646"
CHARSET_ENCODING "1"
FONTNAME_REGISTRY ""
CHARSET_COLLECTIONS "ISO10646-1"
FONT_NAME "FredokaOne-Regular"
FACE_NAME "Fredoka One"
COPYRIGHT "Copyright (c) 2011 Milena B Brandao (milenabbrandao@gmail.com), with Reserved Font Name "Fredoka""
FONT_VERSION "1.001"
FONT_ASCENT 30
FONT_DESCENT 8
UNDERLINE_POSITION -4
UNDERLINE_THICKNESS 2
X_HEIGHT 19
CAP_HEIGHT 28
RAW_ASCENT 800
RAW_DESCENT 200
NORM_SPACE 10
RELATIVE_WEIGHT 40
RELATIVE_SETWIDTH 50
SUPERSCRIPT_X 0
SUPERSCRIPT_Y 18
SUPERSCRIPT_SIZE 24
SUBSCRIPT_X 0
SUBSCRIPT_Y 5
SUBSCRIPT_SIZE 24
AVG_LOWERCASE_WIDTH 217
AVG_UPPERCASE_WIDTH 260
ENDPROPERTIES
CHARS 235
STARTCHAR space
ENCODING 32
SWIDTH 253 0
DWIDTH 10 0
BBX 1 1 0 0
BITMAP
00
ENDCHAR
STARTCHAR exclam
ENCODING 33
SWIDTH 267 0
DWIDTH 10 0
BBX 7 28 2 0
BITMAP
7C
FC
FC
FC
FC
FC
FC
FC
FC
FC
FC
FC
FC
FC
FC
FC
FC
FC
00
00
00
7C
FC
FE
FE
FE
FC
7C
ENDCHAR
STARTCHAR quotedbl
ENCODING 34
SWIDTH 429 0
DWIDTH 16 0
BBX 14 14 1 14
BITMAP
7878
FC7C
FCFC
FCFC
FCFC
FCFC
FCFC
FC7C
F87C
787C
7878
7838
3038
2010
ENDCHAR
STARTCHAR numbersign
ENCODING 35
SWIDTH 749 0
DWIDTH 28 0
BBX 27 28 1 0
BITMAP
00F00E00
01F81F00
01F83F00
01F83F00
01F03E00
01F03E00
01F03E00
1FFFFFC0
3FFFFFE0
7FFFFFE0
7FFFFFE0
7FFFFFC0
03E07C00
07E07C00
07E0FC00
07E0FC00
07C0F800
FFFFFF80
FFFFFF80
FFFFFF80
FFFFFF80
7FFFFE00
0F81F000
0F81F000
0F81F000
1F81F000
1F83F000
0F01E000
ENDCHAR
STARTCHAR dollar
ENCODING 36
SWIDTH 475 0
DWIDTH 18 0
BBX 16 32 1 -3
BITMAP
03C0
03C0
03C0
03C0
03C0
1FF8
3FFC
7FFE
7FFE
FE7C
FC18
FC00
7E00
7FE0
7FF8
3FFE
1FFE
03FF
007F
301F
781F
FC3F
FFFF
7FFE
7FFC
1FF8
0FE0
03C0
03C0
03C0
03C0
03C0
ENDCHAR
STARTCHAR percent
ENCODING 37
SWIDTH 1742 0
DWIDTH 66 0
BBX 64 32 1 -2
BITMAP
0000000006000000
000000000F800000
01FE00001F803FC0
07FF00001FC0FFE0
0FFFC0003F81FFF8
1FFFC0003F83FFF8
3FFFE0007F07FFFC
3FFFE0007F07FFFE
7FDFF000FE0FFBFE
7F07F000FE0FE0FE
7F07F001FC0FE07F
FE03F801FC1FC07F
FE03F803F81FC07F
FE03F803F81FC07F
FE03F807F01FC07F
FE03F807F01FC07F
FE03F80FE01FC07F
FE03F80FE01FC07F
FE03F80FC01FC07F
FE03F81FC01FC07F
FE03F81FC01FC07F
FE03F83F800FE07F
7F07F03F800FE0FE
7FDFF07F000FF9FE
7FFFF07F0007FFFE
3FFFE0FE0007FFFC
3FFFE0FE0003FFFC
1FFFC1FC0003FFF8
0FFF81FC0001FFF0
03FE01F800007FC0
002001F800000400
0000007000000000
ENDCHAR
STARTCHAR ampersand
ENCODING 38
SWIDTH 748 0
DWIDTH 28 0
BBX 27 29 1 0
BITMAP
01FE0000
07FF8000
0FFFC000
0FFFC000
1FFFE000
1F87E000
1F87E000
1F87E000
1F9FE000
1FBFC000
1FFFC000
0FFF8000
0FFF0000
0FFC0000
1FF80000
3FF81F00
7FFC1F80
7FFE3F80
FFFF3F80
FEFFFF00
FE7FFF00
FE3FFE00
FE1FFE00
FF0FFFC0
FFFFFFC0
7FFFFFE0
3FFFFFE0
1FFFFFC0
07FC0FC0
ENDCHAR
STARTCHAR quotesingle
ENCODING 39
SWIDTH 208 0
DWIDTH 8 0
BBX 6 14 1 14
BITMAP
78
FC
FC
FC
FC
FC
FC
FC
F8
78
78
78
30
20
ENDCHAR
STARTCHAR parenleft
ENCODING 40
SWIDTH 384 0
DWIDTH 15 0
BBX 13 38 1 -9
BITMAP
01F8
03F8
07F8
0FF8
1FC0
1F80
3F00
3F00
3E00
7E00
7E00
7C00
7C00
FC00
FC00
FC00
FC00
FC00
FC00
FC00
FC00
FC00
FC00
FC00
7C00
7C00
7E00
7E00
3E00
3F00
3F00
1F80
1FC0
0FF8
07F8
07F8
01F8
0020
ENDCHAR
STARTCHAR parenright
ENCODING 41
SWIDTH 384 0
DWIDTH 15 0
BBX 12 38 1 -9
BITMAP
FC00
FE00
FF00
FF80
3F80
0FC0
0FC0
07E0
07E0
03E0
03E0
03F0
03F0
03F0
01F0
01F0
01F0
01F0
01F0
01F0
01F0
01F0
01F0
03F0
03F0
03F0
03F0
03E0
07E0
07E0
07C0
0FC0
1F80
FF80
FF00
FE00
FC00
6000
ENDCHAR
STARTCHAR asterisk
ENCODING 42
SWIDTH 503 0
DWIDTH 19 0
BBX 18 17 1 11
BITMAP
03E000
03F000
07F000
07F000
7FFF80
FFFF80
FFFF80
FFFFC0
FFFF80
7FFF00
0FFC00
1FFC00
3FFE00
3FFF00
3F7E00
3F3E00
0E3800
ENDCHAR
STARTCHAR plus
ENCODING 43
SWIDTH 527 0
DWIDTH 20 0
BBX 18 18 1 1
BITMAP
03F000
03F000
03F000
03F000
03F000
03F000
FFFFC0
FFFFC0
FFFFC0
FFFFC0
FFFFC0
7FFF00
03F000
03F000
03F000
03F000
03F000
00C000
ENDCHAR
STARTCHAR comma
ENCODING 44
SWIDTH 238 0
DWIDTH 9 0
BBX 7 13 1 -6
BITMAP
7C
FE
FE
FE
FE
FE
7E
3C
3C
7C
F8
F0
E0
ENDCHAR
STARTCHAR hyphen
ENCODING 45
SWIDTH 433 0
DWIDTH 16 0
BBX 15 6 1 5
BITMAP
FFFC
FFFC
FFFE
FFFC
FFFC
7FF8
ENDCHAR
STARTCHAR period
ENCODING 46
SWIDTH 237 0
DWIDTH 9 0
BBX 7 7 1 0
BITMAP
7C
FE
FE
FE
FE
FE
7C
ENDCHAR
STARTCHAR slash
ENCODING 47
SWIDTH 526 0
DWIDTH 20 0
BBX 18 32 1 -2
BITMAP
000600
000780
000FC0
000FC0
001FC0
001FC0
003F80
003F80
007F00
007F00
00FE00
00FE00
01FC00
01FC00
03F800
03F800
07F000
07F000
0FE000
0FE000
1FC000
1FC000
1F8000
3F8000
3F0000
7F0000
7F0000
FE0000
FE0000
FC0000
FC0000
380000
ENDCHAR
STARTCHAR zero
ENCODING 48
SWIDTH 608 0
DWIDTH 23 0
BBX 21 29 1 -1
BITMAP
01FE00
07FF00
0FFFC0
1FFFC0
3FFFE0
3FFFE0
7FDFF0
7F07F0
7F07F0
FE03F8
FE03F8
FE03F8
FE03F8
FE03F8
FE03F8
FE03F8
FE03F8
FE03F8
FE03F8
FE03F8
7F07F0
7FDFF0
7FFFF0
3FFFE0
3FFFE0
1FFFC0
0FFF80
03FE00
002000
ENDCHAR
STARTCHAR one
ENCODING 49
SWIDTH 407 0
DWIDTH 15 0
BBX 13 28 1 0
BITMAP
00F0
01F8
03F8
07F8
1FF8
3FF8
7FF8
FFF8
FFF8
FFF8
FFF8
7FF8
33F8
03F8
03F8
03F8
03F8
03F8
03F8
03F8
03F8
03F8
03F8
03F8
03F8
03F8
03F8
01F0
ENDCHAR
STARTCHAR two
ENCODING 50
SWIDTH 609 0
DWIDTH 23 0
BBX 22 28 1 0
BITMAP
03FC00
0FFF00
1FFF80
3FFFC0
3FFFE0
7FFFE0
7FFFF0
FF07F0
FE07F0
FE03F0
FE03F0
FE07F0
FC0FF0
000FF0
003FE0
007FE0
01FFC0
07FF80
0FFF00
1FFE00
3FF800
7FFFE0
FFFFF8
FFFFF8
FFFFFC
FFFFFC
FFFFF8
7FFFF8
ENDCHAR
STARTCHAR three
ENCODING 51
SWIDTH 608 0
DWIDTH 23 0
BBX 21 29 1 -1
BITMAP
03FE00
0FFF80
1FFFC0
3FFFE0
3FFFE0
7FFFF0
7FCFF0
7F07F0
3E03F8
1E07F0
00FFF0
00FFF0
00FFE0
00FFC0
00FFE0
00FFF0
007FF8
0003F8
FC03F8
FE03F8
FE03F8
FF87F8
7FFFF8
7FFFF0
3FFFE0
1FFFC0
0FFF80
07FE00
002000
ENDCHAR
STARTCHAR four
ENCODING 52
SWIDTH 592 0
DWIDTH 23 0
BBX 20 28 1 0
BITMAP
0F03E0
1F87F0
1FC7F0
1FC7F0
3F87F0
3F87F0
3F87F0
3F87F0
7F07F0
7F07F0
7F07F0
7F07F0
FE07F0
FE07F0
FFFFF0
FFFFF0
FFFFF0
FFFFF0
FFFFF0
7FFFF0
0007F0
0007F0
0007F0
0007F0
0007F0
0007F0
0007F0
0003E0
ENDCHAR
STARTCHAR five
ENCODING 53
SWIDTH 530 0
DWIDTH 20 0
BBX 18 29 1 -1
BITMAP
1FFF80
3FFF80
3FFFC0
3FFFC0
7FFFC0
7FFF80
7FFF00
7F0000
7F0000
7E0000
7FF800
FFFC00
FFFF00
FFFF00
FFFF80
FFFFC0
7E3FC0
1C1FC0
001FC0
001FC0
781FC0
7E3FC0
FFFFC0
FFFF80
FFFF00
7FFF00
3FFE00
0FF800
01C000
ENDCHAR
STARTCHAR six
ENCODING 54
SWIDTH 560 0
DWIDTH 21 0
BBX 19 29 1 -1
BITMAP
000F80
007FC0
01FFE0
03FFE0
07FFE0
0FFFC0
1FFF80
3FF000
3FC000
7F8000
7F0000
7F6000
FFFE00
FFFF00
FFFF80
FFFFC0
FFFFE0
FF9FE0
FE0FE0
FE07E0
FE07E0
7E0FE0
7FFFE0
7FFFC0
3FFFC0
1FFF80
0FFF00
07FC00
004000
ENDCHAR
STARTCHAR seven
ENCODING 55
SWIDTH 561 0
DWIDTH 21 0
BBX 20 28 1 0
BITMAP
7FFFC0
FFFFE0
FFFFF0
FFFFF0
FFFFF0
FFFFF0
7FFFE0
001FE0
001FC0
003FC0
007F80
007F80
00FF00
01FE00
01FE00
03FC00
03FC00
07F800
07F000
07F000
0FE000
0FE000
0FE000
0FC000
0FC000
0FC000
0FC000
0FC000
ENDCHAR
STARTCHAR eight
ENCODING 56
SWIDTH 582 0
DWIDTH 22 0
BBX 20 29 1 -1
BITMAP
03FC00
0FFF00
1FFF80
3FFFC0
3FFFC0
7FFFE0
7F0FE0
7F0FE0
7F07E0
7F0FE0
7FFFE0
3FFFC0
3FFFC0
1FFFC0
3FFFC0
7FFFE0
FF9FF0
FE07F0
FE07F0
FE07F0
FE07F0
FF0FF0
7FFFF0
7FFFE0
3FFFC0
1FFFC0
0FFF00
07FE00
002000
ENDCHAR
STARTCHAR nine
ENCODING 57
SWIDTH 560 0
DWIDTH 21 0
BBX 19 28 1 0
BITMAP
07FC00
0FFE00
3FFF80
3FFF80
7FFFC0
FFFFC0
FE0FE0
FE0FE0
FE0FE0
FE0FE0
FF1FE0
7FFFE0
7FFFE0
3FFFE0
1FFFE0
0FFFE0
03EFE0
001FC0
001FC0
003FC0
00FF80
1FFF00
7FFF00
7FFE00
7FFC00
7FF800
7FE000
3F8000
ENDCHAR
STARTCHAR colon
ENCODING 58
SWIDTH 238 0
DWIDTH 9 0
BBX 7 19 1 0
BITMAP
7C
FE
FE
FE
FE
FE
7C
00
00
00
00
00
7C
FE
FE
FE
FE
FE
7C
ENDCHAR
STARTCHAR semicolon
ENCODING 59
SWIDTH 237 0
DWIDTH 9 0
BBX 7 25 1 -6
BITMAP
7C
FE
FE
FE
FE
FE
7C
00
00
00
00
00
7C
FE
FE
FE
FE
FE
7E
3C
3C
7C
F8
F0
E0
ENDCHAR
STARTCHAR less
ENCODING 60
SWIDTH 627 0
DWIDTH 24 0
BBX 22 26 1 0
BITMAP
000038
0000F8
0003FC
0007FC
001FFC
007FF8
01FFE0
03FFC0
0FFF00
3FFC00
7FF800
FFE000
FF8000
FFC000
FFE000
7FF800
1FFE00
0FFF00
03FFC0
00FFF0
007FF8
001FFC
0007FC
0003FC
0000F8
000030
ENDCHAR
STARTCHAR equal
ENCODING 61
SWIDTH 478 0
DWIDTH 18 0
BBX 16 13 1 2
BITMAP
FFFF
FFFF
FFFF
FFFF
FFFF
0000
0000
0000
FFFF
FFFF
FFFF
FFFF
FFFF
ENDCHAR
STARTCHAR greater
ENCODING 62
SWIDTH 627 0
DWIDTH 24 0
BBX 22 26 1 0
BITMAP
700000
FC0000
FF0000
FF8000
FFE000
7FF800
3FFC00
0FFF00
03FFC0
01FFE0
007FF8
001FFC
000FFC
000FFC
001FFC
007FF8
01FFE0
07FF80
0FFF00
3FFC00
7FF000
FFE000
FF8000
FE0000
7C0000
700000
ENDCHAR
STARTCHAR question
ENCODING 63
SWIDTH 512 0
DWIDTH 19 0
BBX 18 29 1 0
BITMAP
008000
0FF800
3FFC00
7FFE00
7FFF00
FFFF80
FFFF80
FC1F80
FC1F80
780FC0
001F80
003F80
00FF80
03FF00
03FE00
03FC00
03F000
03F000
03E000
000000
000000
000000
03E000
07F000
07F000
07F000
07F000
07F000
03E000
ENDCHAR
STARTCHAR at
ENCODING 64
SWIDTH 908 0
DWIDTH 35 0
BBX 33 30 1 -5
BITMAP
003FFC0000
00FFFF8000
03FFFFC000
07FFFFF000
0FFC3FF800
1FC003FC00
3F0000FC00
3E079E7E00
7E1FFE3E00
7C3FFE1F00
F87FFE1F00
F8FFFE1F00
F8F87E0F00
F8F87E0F80
F8F87C0F80
F8F87C0F80
F8FFFC0F00
F8FFFC0F00
F87FFC1F00
F87FFC1F00
7C1F7C3E00
7C007CFE00
3E007FFC00
3F007FFC00
1FC03FF000
0FFF1FE000
07FF820000
03FF800000
01FF800000
003F000000
ENDCHAR
STARTCHAR A
ENCODING 65
SWIDTH 765 0
DWIDTH 29 0
BBX 28 28 1 0
BITMAP
000E0000
001F0000
003F8000
003F8000
007FC000
007FC000
00FFE000
00FFE000
01FFF000
01FFF000
03FFF800
03FBF800
07FBFC00
07F1FC00
0FF1FE00
0FE0FE00
0FFFFF00
1FFFFF00
1FFFFF80
3FFFFF80
3FFFFF80
7FFFFFC0
7F001FC0
FF001FE0
FE000FE0
FE000FF0
FC0007E0
7C0007C0
ENDCHAR
STARTCHAR B
ENCODING 66
SWIDTH 646 0
DWIDTH 25 0
BBX 22 28 2 0
BITMAP
7FFE00
FFFF80
FFFFC0
FFFFE0
FFFFF0
FFFFF0
FFFFF8
FC03F8
FC03F8
FC03F8
FC07F8
FC3FF0
FC7FF0
FC7FF0
FC7FF0
FC3FF8
FC03F8
FC01F8
FC01FC
FC01FC
FC03F8
FFFFF8
FFFFF8
FFFFF0
FFFFF0
FFFFE0
FFFFC0
7FFF00
ENDCHAR
STARTCHAR C
ENCODING 67
SWIDTH 679 0
DWIDTH 26 0
BBX 24 28 1 0
BITMAP
003FC0
00FFF8
03FFFC
07FFFF
0FFFFF
1FFFFF
3FFFFE
7FE03C
7F8018
7F0000
FF0000
FE0000
FE0000
FE0000
FE0000
FE0000
FE0000
FE0000
7F0000
7F8008
7FC03C
3FFDFE
1FFFFE
1FFFFF
0FFFFF
03FFFE
01FFF8
007FE0
ENDCHAR
STARTCHAR D
ENCODING 68
SWIDTH 704 0
DWIDTH 27 0
BBX 24 28 2 0
BITMAP
7FF800
FFFF00
FFFFC0
FFFFE0
FFFFF0
FFFFF8
FFFFFC
FC07FC
FC03FE
FC01FE
FC00FE
FC007F
FC007F
FC007F
FC007F
FC007F
FC007F
FC00FE
FC00FE
FC01FE
FC07FC
FFFFFC
FFFFF8
FFFFF0
FFFFE0
FFFFC0
FFFF00
FFF800
ENDCHAR
STARTCHAR E
ENCODING 69
SWIDTH 638 0
DWIDTH 24 0
BBX 21 28 2 0
BITMAP
7FFFF0
FFFFF8
FFFFF8
FFFFF8
FFFFF8
FFFFF8
FFFFF0
FC0000
FC0000
FC0000
FC0000
FFFF80
FFFF80
FFFF80
FFFF80
FFFF80
FFFF80
FC0000
FC0000
FC0000
FC0000
FFFFF0
FFFFF8
FFFFF8
FFFFF8
FFFFF8
FFFFF8
FFFFF0
ENDCHAR
STARTCHAR F
ENCODING 70
SWIDTH 637 0
DWIDTH 24 0
BBX 21 28 2 0
BITMAP
7FFFF0
FFFFF8
FFFFF8
FFFFF8
FFFFF8
FFFFF8
FFFFF0
FC0000
FC0000
FC0000
FC0000
FFFF00
FFFF80
FFFF80
FFFF80
FFFF80
FFFF80
FC0000
FC0000
FC0000
FC0000
FC0000
FC0000
FC0000
FC0000
FC0000
FC0000
F80000
ENDCHAR
STARTCHAR G
ENCODING 71
SWIDTH 714 0
DWIDTH 27 0
BBX 25 28 1 0
BITMAP
007FE000
01FFF800
03FFFE00
0FFFFF00
1FFFFF00
1FFFFE00
3FF9FE00
7FC03C00
7F800000
7F000000
FE000000
FE07FE00
FE07FF00
FE0FFF80
FE0FFF80
FE07FF80
FE07FF80
FF003F80
7F003F80
7F803F80
7FC03F80
3FF9FF80
1FFFFF80
0FFFFF80
0FFFFF00
03FFFE00
01FFFC00
007FF000
ENDCHAR
STARTCHAR H
ENCODING 72
SWIDTH 699 0
DWIDTH 27 0
BBX 23 28 2 0
BITMAP
78007C
FC007E
FC00FE
FC00FE
FC00FE
FC00FE
FC00FE
FC00FE
FC00FE
FC00FE
FC00FE
FFFFFE
FFFFFE
FFFFFE
FFFFFE
FFFFFE
FFFFFE
FC00FE
FC00FE
FC00FE
FC00FE
FC00FE
FC00FE
FC00FE
FC00FE
FC00FE
FC007E
78007C
ENDCHAR
STARTCHAR I
ENCODING 73
SWIDTH 257 0
DWIDTH 10 0
BBX 6 28 2 0
BITMAP
78
FC
FC
FC
FC
FC
FC
FC
FC
FC
FC
FC
FC
FC
FC
FC
FC
FC
FC
FC
FC
FC
FC
FC
FC
FC
FC
F8
ENDCHAR
STARTCHAR J
ENCODING 74
SWIDTH 549 0
DWIDTH 21 0
BBX 18 28 1 0
BITMAP
000780
000FC0
000FC0
000FC0
000FC0
000FC0
000FC0
000FC0
000FC0
000FC0
000FC0
000FC0
000FC0
000FC0
000FC0
000FC0
000FC0
000FC0
000FC0
301FC0
7C1FC0
FF7FC0
FFFF80
FFFF80
FFFF00
7FFE00
3FFC00
0FF000
ENDCHAR
STARTCHAR K
ENCODING 75
SWIDTH 639 0
DWIDTH 24 0
BBX 21 28 2 0
BITMAP
7801E0
FC03F0
FC03F8
FC07F8
FC0FF8
FC1FF0
FC3FE0
FC7FC0
FCFF80
FDFF00
FFFE00
FFFC00
FFF800
FFF000
FFF000
FFF800
FFFC00
FFFE00
FDFF00
FCFF80
FC7FC0
FC3FE0
FC1FF0
FC0FF8
FC07F8
FC07F8
FC03F0
F801E0
ENDCHAR
STARTCHAR L
ENCODING 76
SWIDTH 587 0
DWIDTH 22 0
BBX 19 28 2 0
BITMAP
780000
FC0000
FC0000
FC0000
FC0000
FC0000
FC0000
FC0000
FC0000
FC0000
FC0000
FC0000
FC0000
FC0000
FC0000
FC0000
FC0000
FC0000
FC0000
FC0000
FC0000
FC0000
FFFF80
FFFFE0
FFFFE0
FFFFE0
FFFFE0
FFFFE0
ENDCHAR
STARTCHAR M
ENCODING 77
SWIDTH 870 0
DWIDTH 33 0
BBX 30 28 2 0
BITMAP
780000F0
FC0001F8
FE0003FC
FF0007FC
FF0007FC
FF800FFC
FFC01FFC
FFE03FFC
FFE07FFC
FFF07FFC
FFF8FFFC
FFFDFFFC
FDFFFDFC
FDFFFDFC
FCFFF9FC
FC7FF1FC
FC3FE1FC
FC3FE1FC
FC1FC1FC
FC0F81FC
FC0701FC
FC0001FC
FC0001FC
FC0001FC
FC0001FC
FC0001FC
FC0001F8
F80000F0
ENDCHAR
STARTCHAR N
ENCODING 78
SWIDTH 720 0
DWIDTH 27 0
BBX 24 28 2 0
BITMAP
78003E
FC007F
FE007F
FF007F
FF007F
FF807F
FFC07F
FFE07F
FFE07F
FFF07F
FFF87F
FFFC7F
FFFC7F
FDFE7F
FCFF7F
FC7FFF
FC7FFF
FC3FFF
FC1FFF
FC0FFF
FC0FFF
FC07FF
FC03FF
FC01FF
FC00FF
FC00FF
FC007F
F8003E
ENDCHAR
STARTCHAR O
ENCODING 79
SWIDTH 775 0
DWIDTH 29 0
BBX 28 28 1 0
BITMAP
003FC000
01FFF000
03FFFC00
0FFFFE00
1FFFFF00
1FFFFF80
3FFFFF80
7FC07FC0
7F803FC0
7F001FE0
FE000FE0
FE000FE0
FE0007E0
FE0007F0
FE0007E0
FE0007E0
FE000FE0
FE000FE0
7F000FE0
7F801FE0
7FC03FC0
3FF1FFC0
3FFFFF80
1FFFFF00
0FFFFE00
07FFFC00
01FFF800
007FE000
ENDCHAR
STARTCHAR P
ENCODING 80
SWIDTH 632 0
DWIDTH 24 0
BBX 21 28 2 0
BITMAP
7FFC00
FFFF00
FFFF80
FFFFE0
FFFFE0
FFFFF0
FFFFF0
FC07F8
FC03F8
FC03F8
FC03F8
FC03F8
FC03F8
FC0FF8
FFFFF0
FFFFF0
FFFFE0
FFFFC0
FFFF80
FFFE00
FC0000
FC0000
FC0000
FC0000
FC0000
FC0000
FC0000
780000
ENDCHAR
STARTCHAR Q
ENCODING 81
SWIDTH 830 0
DWIDTH 32 0
BBX 30 28 1 0
BITMAP
003FC000
01FFF000
03FFFC00
0FFFFE00
1FFFFF00
1FFFFF80
3FFFFF80
7FC07FC0
7F803FC0
7F001FE0
FE000FE0
FE000FE0
FE0007E0
FE0007E0
FE0007F0
FE0007E0
FE000FE0
FE000FE0
7F000FE0
7F801FC0
7FC03FC0
3FF1FFF0
3FFFFFF8
1FFFFFFC
0FFFFFFC
07FFFFFC
01FFF9F8
007FE070
ENDCHAR
STARTCHAR R
ENCODING 82
SWIDTH 631 0
DWIDTH 24 0
BBX 21 28 2 0
BITMAP
7FFC00
FFFF00
FFFFC0
FFFFE0
FFFFE0
FFFFF0
FFFFF0
FC07F8
FC03F8
FC03F8
FC03F8
FC03F8
FC03F8
FC0FF8
FFFFF0
FFFFF0
FFFFE0
FFFFC0
FFFFE0
FFFFE0
FC0FF0
FC07F0
FC07F0
FC03F8
FC03F8
FC03F8
FC01F8
7801F0
ENDCHAR
STARTCHAR S
ENCODING 83
SWIDTH 583 0
DWIDTH 22 0
BBX 20 28 1 0
BITMAP
07FE00
0FFF80
1FFFC0
3FFFC0
7FFFE0
7FFFC0
7F0F80
FE0700
FE0000
7F0000
7FC000
7FFC00
3FFF80
3FFFC0
1FFFE0
07FFF0
00FFF0
000FF0
1007F0
7C07F0
7E07F0
FF0FF0
FFFFF0
FFFFE0
7FFFE0
3FFFC0
0FFF00
07FE00
ENDCHAR
STARTCHAR T
ENCODING 84
SWIDTH 731 0
DWIDTH 28 0
BBX 26 28 1 0
BITMAP
FFFFFF80
FFFFFFC0
FFFFFFC0
FFFFFFC0
FFFFFFC0
3FFFFF00
003F0000
003F0000
003F0000
003F0000
003F0000
003F0000
003F0000
003F0000
003F0000
003F0000
003F0000
003F0000
003F0000
003F0000
003F0000
003F0000
003F0000
003F0000
003F0000
003F0000
003F0000
003E0000
ENDCHAR
STARTCHAR U
ENCODING 85
SWIDTH 726 0
DWIDTH 28 0
BBX 24 28 2 0
BITMAP
78001E
FC003F
FC007F
FC007F
FC007F
FC007F
FC007F
FC007F
FC007F
FC007F
FC007F
FC007F
FC007F
FC007F
FC007F
FC007F
FC007F
FE007F
FE007F
FF00FE
7F01FE
7FC7FE
3FFFFC
3FFFF8
1FFFF8
0FFFF0
07FFC0
01FF00
ENDCHAR
STARTCHAR V
ENCODING 86
SWIDTH 783 0
DWIDTH 30 0
BBX 28 28 1 0
BITMAP
380003C0
FC0003E0
FC0007F0
FE0007F0
FE000FF0
FF000FE0
7F001FE0
7F801FC0
3F801FC0
3FC03F80
1FC03F80
1FE07F00
0FE07F00
0FE0FE00
07F0FE00
07F1FC00
03F9FC00
03FBF800
01FFF800
01FFF000
00FFF000
00FFE000
007FE000
007FC000
003FC000
003F8000
001F8000
000F0000
ENDCHAR
STARTCHAR W
ENCODING 87
SWIDTH 999 0
DWIDTH 38 0
BBX 36 28 1 0
BITMAP
3800F001C0
FC01F803F0
FC01F803F0
FE03FC07F0
FE03FC07F0
FE03FC07F0
7F07FE0FE0
7F07FE0FE0
7F07FE0FE0
3F8FFF1FC0
3F8FFF1FC0
3F8FFF1FC0
1FDFFFBF80
1FDFFFBF80
1FDFBFBF80
0FFF9FFF00
0FFF9FFF00
0FFF1FFE00
07FF0FFE00
07FF0FFE00
03FE07FC00
03FE07FC00
03FE07FC00
01FC03F800
01FC03F800
01FC03F800
00F801F000
007000E000
ENDCHAR
STARTCHAR X
ENCODING 88
SWIDTH 741 0
DWIDTH 28 0
BBX 27 29 1 0
BITMAP
10000200
78000780
FC000FC0
FE001FC0
FF003FE0
FF807FC0
7FC0FF80
3FE1FF00
1FF1FE00
0FF3FE00
07FFFC00
07FFF800
03FFF000
01FFE000
00FFC000
00FFC000
01FFE000
03FFF000
07FFF800
0FFFFC00
1FF3FE00
1FE1FF00
3FE0FF80
7FC07F80
FF807FC0
FF003FE0
FE001FC0
FC000FC0
38000780
ENDCHAR
STARTCHAR Y
ENCODING 89
SWIDTH 686 0
DWIDTH 26 0
BBX 25 28 1 0
BITMAP
38001C00
FC003F00
FE007F00
FE007F80
FF00FF00
7F81FE00
7F81FE00
3FC3FC00
1FC3F800
1FE7F800
0FFFF000
07FFE000
07FFE000
03FFC000
01FF8000
01FF8000
00FF0000
007E0000
007E0000
007E0000
007E0000
007E0000
007E0000
007E0000
007E0000
007E0000
007E0000
007E0000
ENDCHAR
STARTCHAR Z
ENCODING 90
SWIDTH 643 0
DWIDTH 24 0
BBX 22 28 1 0
BITMAP
7FFFF0
FFFFF8
FFFFFC
FFFFFC
FFFFFC
FFFFF8
3FFFF8
000FF0
001FE0
003FC0
007FC0
007F80
00FF00
01FF00
01FE00
03FC00
07F800
0FF800
0FF000
1FE000
3FC000
7FFFF0
7FFFFC
FFFFFC
FFFFFC
FFFFFC
FFFFFC
7FFFFC
ENDCHAR
STARTCHAR bracketleft
ENCODING 91
SWIDTH 348 0
DWIDTH 13 0
BBX 11 38 2 -9
BITMAP
FFC0
FFE0
FFE0
FFE0
FFC0
FC00
FC00
FC00
FC00
FC00
FC00
FC00
FC00
FC00
FC00
FC00
FC00
FC00
FC00
FC00
FC00
FC00
FC00
FC00
FC00
FC00
FC00
FC00
FC00
FC00
FC00
FC00
FFC0
FFE0
FFE0
FFE0
FFC0
3F80
ENDCHAR
STARTCHAR backslash
ENCODING 92
SWIDTH 528 0
DWIDTH 20 0
BBX 19 32 1 -2
BITMAP
180000
780000
FC0000
FC0000
FE0000
FE0000
7F0000
7F0000
3F8000
3F8000
1FC000
1FC000
0FE000
0FE000
07F000
07F000
03F800
03F800
01FC00
01FC00
00FE00
00FE00
007F00
007F00
003F80
003F80
001FC0
001FC0
001FC0
000FE0
000FC0
000700
ENDCHAR
STARTCHAR bracketright
ENCODING 93
SWIDTH 348 0
DWIDTH 13 0
BBX 11 38 1 -9
BITMAP
FFC0
FFE0
FFE0
FFE0
FFE0
07E0
07E0
07E0
07E0
07E0
07E0
07E0
07E0
07E0
07E0
07E0
07E0
07E0
07E0
07E0
07E0
07E0
07E0
07E0
07E0
07E0
07E0
07E0
07E0
07E0
07E0
07E0
FFE0
FFE0
FFE0
FFE0
FFC0
7F00
ENDCHAR
STARTCHAR asciicircum
ENCODING 94
SWIDTH 526 0
DWIDTH 20 0
BBX 16 12 2 9
BITMAP
0180
03C0
07E0
0FF0
1FF8
3FFC
7FFE
FE7F
FC3F
F81F
700E
2004
ENDCHAR
STARTCHAR underscore
ENCODING 95
SWIDTH 826 0
DWIDTH 31 0
BBX 30 6 1 -9
BITMAP
7FFFFFF0
FFFFFFFC
FFFFFFFC
FFFFFFFC
FFFFFFFC
7FFFFFF0
ENDCHAR
STARTCHAR grave
ENCODING 96
SWIDTH 482 0
DWIDTH 18 0
BBX 11 7 4 22
BITMAP
7800
FF00
FFE0
FFE0
FFE0
3FC0
03C0
ENDCHAR
STARTCHAR a
ENCODING 97
SWIDTH 596 0
DWIDTH 23 0
BBX 20 20 1 0
BITMAP
03E3E0
0FFBF0
1FFFF0
3FFFF0
3FFFF0
7FFFF0
7FFFF0
FF0FF0
FE07F0
FE07F0
FE07F0
FE07F0
FF0FF0
7FFFF0
7FFFF0
3FFFF0
3FFFF0
1FFFF0
07FBF0
03E1E0
ENDCHAR
STARTCHAR b
ENCODING 98
SWIDTH 592 0
DWIDTH 23 0
BBX 20 29 2 0
BITMAP
FC0000
FC0000
FC0000
FC0000
FC0000
FC0000
FC0000
FC0000
FC0000
FCF800
FDFE00
FFFF00
FFFF80
FFFFC0
FFFFC0
FFFFE0
FE0FE0
FE07E0
FC07F0
FC07F0
FE0FE0
FE0FE0
FFFFE0
FFFFC0
FFFFC0
FFFF80
FFFF00
FFFE00
F8F800
ENDCHAR
STARTCHAR c
ENCODING 99
SWIDTH 517 0
DWIDTH 20 0
BBX 18 20 1 0
BITMAP
03FC00
07FF00
1FFF80
3FFFC0
7FFFC0
7FFF80
FFFF00
FF0700
FE0000
FE0000
FE0000
FE0000
FF0600
7FFF00
7FFF80
3FFFC0
3FFFC0
1FFF80
07FF00
01FC00
ENDCHAR
STARTCHAR d
ENCODING 100
SWIDTH 598 0
DWIDTH 23 0
BBX 20 29 1 0
BITMAP
0003F0
0003F0
0003F0
0003F0
0003F0
0003F0
0003F0
0003F0
0003F0
01F3F0
07FBF0
1FFFF0
1FFFF0
3FFFF0
7FFFF0
7FFFF0
FF0FF0
FE07F0
FE07F0
FE07F0
FE07F0
FF0FF0
7FFFF0
7FFFF0
3FFFF0
1FFFF0
0FFFF0
07FBF0
01E1E0
ENDCHAR
STARTCHAR e
ENCODING 101
SWIDTH 573 0
DWIDTH 22 0
BBX 20 21 1 -1
BITMAP
03FE00
0FFF80
1FFFC0
3FFFE0
7FFFE0
7FFFF0
FF07F0
FE07F0
FE07F0
FFFFF0
FFFFE0
FFFFC0
FE0000
FF0000
7FCFC0
7FFFC0
3FFFE0
1FFFE0
0FFFC0
03FF80
003000
ENDCHAR
STARTCHAR f
ENCODING 102
SWIDTH 450 0
DWIDTH 17 0
BBX 16 29 1 0
BITMAP
01FC
03FC
07FE
0FFE
0FFC
1FFC
1FC0
1FC0
1FC0
7FFE
FFFE
FFFE
FFFF
FFFE
FFFE
7FF8
1FC0
1FC0
1FC0
1FC0
1FC0
1FC0
1FC0
1FC0
1FC0
1FC0
1FC0
1FC0
0F80
ENDCHAR
STARTCHAR g
ENCODING 103
SWIDTH 585 0
DWIDTH 22 0
BBX 20 29 1 -9
BITMAP
03E3E0
0FFFF0
1FFFF0
3FFFF0
7FFFF0
7FFFF0
FFBFF0
FE0FF0
FE07F0
FC07F0
FE07F0
FE0FF0
FF1FF0
7FFFF0
7FFFF0
3FFFF0
1FFFF0
0FFFF0
07F7F0
0007F0
0007F0
1E0FE0
3FFFE0
3FFFE0
3FFFC0
3FFF80
1FFF00
07FC00
007000
ENDCHAR
STARTCHAR h
ENCODING 104
SWIDTH 605 0
DWIDTH 23 0
BBX 19 29 2 0
BITMAP
FC0000
FC0000
FC0000
FC0000
FC0000
FC0000
FC0000
FC0000
FC0000
FC7800
FDFE00
FFFF80
FFFF80
FFFFC0
FFFFE0
FFFFE0
FE0FE0
FC07E0
FC07E0
FC07E0
FC07E0
FC07E0
FC07E0
FC07E0
FC07E0
FC07E0
FC07E0
FC07E0
F803E0
ENDCHAR
STARTCHAR i
ENCODING 105
SWIDTH 255 0
DWIDTH 10 0
BBX 6 29 2 0
BITMAP
FC
FC
FC
FC
FC
FC
00
00
00
F8
FC
FC
FC
FC
FC
FC
FC
FC
FC
FC
FC
FC
FC
FC
FC
FC
FC
FC
F8
ENDCHAR
STARTCHAR j
ENCODING 106
SWIDTH 252 0
DWIDTH 10 0
BBX 13 38 -5 -9
BITMAP
01F8
01F8
01F8
01F8
01F8
01F0
0000
0000
0000
01F0
01F8
01F8
01F8
01F8
01F8
01F8
01F8
01F8
01F8
01F8
01F8
01F8
01F8
01F8
01F8
01F8
01F8
01F8
03F8
03F8
07F8
7FF0
FFF0
FFE0
FFC0
FF80
FF00
3000
ENDCHAR
STARTCHAR k
ENCODING 107
SWIDTH 536 0
DWIDTH 20 0
BBX 18 29 2 0
BITMAP
FC0000
FC0000
FC0000
FC0000
FC0000
FC0000
FC0000
FC0000
FC0000
FC0000
FC1C00
FC3E00
FC7F00
FCFF00
FDFF00
FFFE00
FFFC00
FFF800
FFF000
FFF000
FFF800
FFFC00
FFFF00
FDFF80
FCFFC0
FC7FC0
FC3F80
FC1F80
F80700
ENDCHAR
STARTCHAR l
ENCODING 108
SWIDTH 327 0
DWIDTH 12 0
BBX 10 29 2 0
BITMAP
FC00
FC00
FC00
FC00
FC00
FC00
FC00
FC00
FC00
FC00
FC00
FC00
FC00
FC00
FC00
FC00
FC00
FC00
FC00
FC00
FC00
FC00
FE00
FFC0
FFC0
FFC0
FFC0
7FC0
1F80
ENDCHAR
STARTCHAR m
ENCODING 109
SWIDTH 851 0
DWIDTH 32 0
BBX 29 20 2 0
BITMAP
F8F81F00
FDFE3FC0
FFFF7FE0
FFFFFFF0
FFFFFFF0
FFFFFFF0
FFFFFFF8
FE3FC3F8
FC1FC3F8
FC1FC3F8
FC1FC3F8
FC1FC3F8
FC1FC3F8
FC1FC3F8
FC1FC3F8
FC1FC3F8
FC1FC3F8
FC1FC3F8
FC1F83F8
F80F81F0
ENDCHAR
STARTCHAR n
ENCODING 110
SWIDTH 606 0
DWIDTH 23 0
BBX 20 20 2 0
BITMAP
F8FC00
FDFE00
FFFF80
FFFF80
FFFFC0
FFFFE0
FFFFE0
FE0FE0
FC07E0
FC07F0
FC07F0
FC07F0
FC07F0
FC07F0
FC07F0
FC07F0
FC07F0
FC07F0
FC07E0
F803E0
ENDCHAR
STARTCHAR o
ENCODING 111
SWIDTH 600 0
DWIDTH 23 0
BBX 21 20 1 0
BITMAP
03FE00
0FFF80
1FFFC0
3FFFE0
7FFFE0
7FFFF0
FF8FF0
FE07F8
FE03F8
FE03F8
FE03F8
FE03F8
FF07F8
7FDFF0
7FFFF0
3FFFE0
3FFFE0
1FFFC0
0FFF00
03FE00
ENDCHAR
STARTCHAR p
ENCODING 112
SWIDTH 582 0
DWIDTH 22 0
BBX 19 29 2 -9
BITMAP
F8F800
FFFE00
FFFF00
FFFF80
FFFFC0
FFFFC0
FFFFE0
FE0FE0
FC0FE0
FC07E0
FC07E0
FE0FE0
FF1FE0
FFFFC0
FFFFC0
FFFF80
FFFF00
FFFE00
FDFC00
FC0000
FC0000
FC0000
FC0000
FC0000
FC0000
FC0000
FC0000
FC0000
700000
ENDCHAR
STARTCHAR q
ENCODING 113
SWIDTH 582 0
DWIDTH 22 0
BBX 20 29 1 -9
BITMAP
03E3E0
0FFFE0
1FFFF0
3FFFF0
7FFFF0
7FFFF0
FFFFF0
FE0FF0
FE07F0
FC07F0
FE07F0
FE0FF0
FF1FF0
7FFFF0
7FFFF0
3FFFF0
1FFFF0
0FFFF0
07F7F0
0007F0
0007F0
0007F0
0007F0
0007F0
0007F0
0007F0
0007F0
0007E0
0001C0
ENDCHAR
STARTCHAR r
ENCODING 114
SWIDTH 457 0
DWIDTH 17 0
BBX 15 20 2 0
BITMAP
F8FC
FDFE
FFFE
FFFE
FFFC
FFFC
FF38
FE00
FC00
FC00
FC00
FC00
FC00
FC00
FC00
FC00
FC00
FC00
FC00
7800
ENDCHAR
STARTCHAR s
ENCODING 115
SWIDTH 489 0
DWIDTH 19 0
BBX 17 20 1 0
BITMAP
0FF800
3FFE00
7FFF00
7FFF00
7FFE00
7E0C00
7E0000
7FE000
7FFC00
3FFE00
3FFF00
0FFF00
03FF80
303F80
7C3F80
FFFF00
FFFF00
FFFF00
7FFE00
1FF800
ENDCHAR
STARTCHAR t
ENCODING 116
SWIDTH 449 0
DWIDTH 17 0
BBX 15 27 1 0
BITMAP
0F00
1F80
1FC0
1FC0
1FC0
1FC0
1FC0
FFFE
FFFE
FFFE
FFFE
FFFE
FFFE
7FFC
1FC0
1FC0
1FC0
1FC0
1FC0
1FC0
1FE0
1FFC
1FFC
0FFC
0FFC
07FC
01FC
ENDCHAR
STARTCHAR u
ENCODING 117
SWIDTH 606 0
DWIDTH 23 0
BBX 20 20 2 0
BITMAP
F803E0
FC07E0
FC07E0
FC07F0
FC07F0
FC07F0
FC07F0
FC07F0
FC07F0
FC07F0
FC07F0
FC07F0
FE0FF0
FFFFF0
FFFFF0
7FFFF0
3FFFF0
3FFFF0
0FF7E0
03C3E0
ENDCHAR
STARTCHAR v
ENCODING 118
SWIDTH 638 0
DWIDTH 24 0
BBX 23 20 1 0
BITMAP
780078
FC00FC
FE00FE
FE01FE
FF01FC
7F03FC
7F83F8
3F87F0
3FC7F0
1FCFE0
0FFFE0
0FFFC0
07FFC0
07FF80
03FF00
03FF00
01FE00
00FE00
00FC00
007800
ENDCHAR
STARTCHAR w
ENCODING 119
SWIDTH 793 0
DWIDTH 30 0
BBX 29 20 1 0
BITMAP
780F01E0
FC1F83F0
FC1F83F8
FE3FC7F0
FE3FC7F0
7E3FC7F0
7F7FEFE0
7F7FEFE0
3FFFFFC0
3FFFFFC0
1FFFFFC0
1FFFFF80
1FFFFF80
0FF9FF00
0FF9FF00
07F8FF00
07F0FE00
07F0FE00
03E07C00
01C03800
ENDCHAR
STARTCHAR x
ENCODING 120
SWIDTH 567 0
DWIDTH 22 0
BBX 20 20 1 0
BITMAP
3801C0
7C07E0
FE07F0
FF0FF0
FF9FF0
7FFFE0
3FFFC0
1FFF80
0FFF00
07FE00
07FE00
0FFF00
1FFF80
3FFFC0
7FFFE0
FF9FF0
FF0FF0
FE07F0
7C03E0
3801C0
ENDCHAR
STARTCHAR y
ENCODING 121
SWIDTH 604 0
DWIDTH 23 0
BBX 21 29 1 -9
BITMAP
7801F0
FC01F8
FE03F8
FE03F8
FF03F8
7F07F0
7F87F0
3FCFE0
1FCFE0
1FFFE0
0FFFC0
0FFFC0
07FF80
03FF80
03FF00
01FF00
01FE00
00FE00
01FE00
01FC00
03FC00
03F800
03F800
07F000
07F000
0FE000
0FE000
07E000
01C000
ENDCHAR
STARTCHAR z
ENCODING 122
SWIDTH 586 0
DWIDTH 22 0
BBX 20 20 1 0
BITMAP
3FFFC0
7FFFE0
7FFFF0
7FFFF0
7FFFF0
7FFFE0
1FFFC0
007F80
01FF00
03FE00
07FC00
0FF000
1FE000
3FFFC0
7FFFF0
FFFFF0
FFFFF0
FFFFF0
FFFFF0
3FFFE0
ENDCHAR
STARTCHAR braceleft
ENCODING 123
SWIDTH 381 0
DWIDTH 14 0
BBX 13 38 1 -9
BITMAP
01F8
03F8
07F8
0FF8
0FF0
0FC0
0F80
0F80
0F80
0F80
0F80
0F80
0F80
0F80
0F80
1F80
FF80
FF00
FE00
FF00
FF80
3F80
0F80
0F80
0F80
0F80
0F80
0F80
0F80
0F80
0F80
0F80
0FF0
0FF8
07F8
03F8
01F8
0020
ENDCHAR
STARTCHAR bar
ENCODING 124
SWIDTH 217 0
DWIDTH 8 0
BBX 5 38 2 -9
BITMAP
F0
F8
F8
F8
F8
F8
F8
F8
F8
F8
F8
F8
F8
F8
F8
F8
F8
F8
F8
F8
F8
F8
F8
F8
F8
F8
F8
F8
F8
F8
F8
F8
F8
F8
F8
F8
F0
F0
ENDCHAR
STARTCHAR braceright
ENCODING 125
SWIDTH 381 0
DWIDTH 14 0
BBX 13 38 1 -9
BITMAP
FC00
FE00
FF00
FF00
FF00
1F00
1F80
1F80
1F80
1F80
1F80
1F80
1F80
1F80
1F80
1F80
0FF0
0FF8
07F8
0FF8
0FF8
1FC0
1F80
1F80
1F00
1F00
1F00
1F00
1F00
1F80
1F80
1F00
FF00
FF00
FF00
FE00
FC00
2000
ENDCHAR
STARTCHAR asciitilde
ENCODING 126
SWIDTH 651 0
DWIDTH 25 0
BBX 20 8 2 6
BITMAP
1FC1C0
3FF3E0
7FFFF0
FFFFF0
FFFFE0
FFFFC0
7C7F80
383E00
ENDCHAR
STARTCHAR exclamdown
ENCODING 161
SWIDTH 268 0
DWIDTH 10 0
BBX 7 28 2 -9
BITMAP
FC
FC
FE
FE
FE
FC
78
00
00
00
FC
FC
FC
FC
FC
FC
FC
FC
FC
FC
FC
FC
FC
FC
FC
FC
FC
38
ENDCHAR
STARTCHAR cent
ENCODING 162
SWIDTH 434 0
DWIDTH 16 0
BBX 15 28 1 -3
BITMAP
03C0
03C0
03C0
03C0
03C0
03C0
07F0
1FFC
3FFE
7FFC
7FFC
FE78
FC10
FC00
FC00
FC00
FE38
7FFC
7FFC
3FFE
1FFC
0FF0
03C0
03C0
03C0
03C0
03C0
01C0
ENDCHAR
STARTCHAR sterling
ENCODING 163
SWIDTH 675 0
DWIDTH 26 0
BBX 24 28 1 0
BITMAP
001F80
00FFF0
03FFFC
07FFFE
07FFFE
0FFFFE
0FF1FE
1FC03C
1FC018
1F8000
1F8000
1F8000
FFFE00
FFFE00
FFFE00
FFFE00
FFFE00
0FE000
0FE000
0FE000
0FE000
0FC000
1FFFFF
3FFFFF
3FFFFF
3FFFFF
3FFFFF
1FFFFE
ENDCHAR
STARTCHAR currency
ENCODING 164
SWIDTH 677 0
DWIDTH 26 0
BBX 24 29 1 0
BITMAP
78001C
F8001E
FC003F
FFFFFE
7FFFFE
3FFFFC
1FFFF8
1FFFF8
3FFFFC
3F81FC
7E00FE
7E007E
7E007E
7C007E
7C007E
7E007E
7E007E
7E007E
7F00FC
3FC3FC
3FFFFC
1FFFF8
3FFFF8
7FFFFC
7FFFFE
FE007F
F8003F
78001E
30000C
ENDCHAR
STARTCHAR yen
ENCODING 165
SWIDTH 677 0
DWIDTH 26 0
BBX 24 28 1 0
BITMAP
38001C
7C003E
FC007F
FE007F
FF00FF
FF01FE
7F81FE
3FC3FC
1FC3F8
1FE7F8
0FEFF0
07FFE0
07FFE0
03FFC0
0FFFE0
1FFFF8
1FFFF8
1FFFF8
007E00
007E00
007E00
0FFFF0
1FFFF8
1FFFF8
0FFFF0
007E00
007E00
007C00
ENDCHAR
STARTCHAR brokenbar
ENCODING 166
SWIDTH 215 0
DWIDTH 8 0
BBX 5 37 2 -8
BITMAP
F0
F8
F8
F8
F8
F8
F8
F8
F8
F8
F8
F8
F8
F8
F8
F8
F0
00
00
00
F0
F0
F8
F8
F8
F8
F8
F8
F8
F8
F8
F8
F8
F8
F8
F8
F0
ENDCHAR
STARTCHAR section
ENCODING 167
SWIDTH 560 0
DWIDTH 21 0
BBX 19 38 1 -9
BITMAP
07FC00
0FFF00
1FFF80
3FFFC0
7FFFC0
7FFF80
7E0F00
FE0600
FE0000
7F0000
7FE000
7FFE00
3FFF80
3FFFC0
7FFFC0
7FFFE0
7F3FE0
FE0FE0
FE07E0
7E07E0
7F8FE0
7FFFE0
3FFFC0
3FFFC0
0FFFC0
03FFE0
007FE0
000FE0
3807E0
7C07E0
FE0FE0
FF9FE0
FFFFE0
7FFFC0
3FFF80
1FFF00
0FFC00
006000
ENDCHAR
STARTCHAR dieresis
ENCODING 168
SWIDTH 489 0
DWIDTH 19 0
BBX 17 6 2 23
BITMAP
FC3F00
FC3F00
FC3F80
FC3F80
FC3F00
FC3F00
ENDCHAR
STARTCHAR copyright
ENCODING 169
SWIDTH 711 0
DWIDTH 27 0
BBX 25 24 1 4
BITMAP
01FFE000
07FFF800
1FFFFC00
3F007E00
3C001E00
787F0F00
70FF8700
F1FFC780
F3FF8780
E3C10380
E7C00380
E7800380
E7800380
E7C00380
E3C10380
F3FF8780
F1FFC780
70FFC700
787F0F00
3C001E00
3F007E00
1FFFFC00
0FFFF000
03FFE000
ENDCHAR
STARTCHAR ordfeminine
ENCODING 170
SWIDTH 445 0
DWIDTH 17 0
BBX 14 14 1 13
BITMAP
0FBC
1FFC
3FFC
7FFC
FFFC
F87C
F87C
F87C
F87C
FFFC
7FFC
7FFC
3FFC
0FBC
ENDCHAR
STARTCHAR guillemotleft
ENCODING 171
SWIDTH 668 0
DWIDTH 25 0
BBX 24 20 1 0
BITMAP
00C00C
01E03E
03F07F
07F0FF
0FF1FE
1FE3FC
3FC7F8
7F8FF0
FF1FE0
FE1FC0
FE1FC0
FF1FE0
7F8FF0
3FC7F8
1FE3FC
0FF1FE
07F0FF
03F07F
01E03E
00C01C
ENDCHAR
STARTCHAR logicalnot
ENCODING 172
SWIDTH 526 0
DWIDTH 20 0
BBX 18 12 1 5
BITMAP
7FFF80
FFFFC0
FFFFC0
FFFFC0
FFFFC0
FFFFC0
7FFFC0
0007C0
0007C0
0007C0
0007C0
0003C0
ENDCHAR
STARTCHAR registered
ENCODING 174
SWIDTH 711 0
DWIDTH 27 0
BBX 25 24 1 4
BITMAP
01FFE000
07FFF800
1FFFFC00
3F007E00
3C001E00
78FF0F00
70FF8700
F0FFC780
F0E7C780
E0E1E380
E0E3C380
E0FFC380
E0FFC380
E0FF8380
E0FFC380
F0E3C780
F0E3C780
70E1E700
78E1CF00
3C001E00
3F007E00
1FFFFC00
0FFFF000
03FFE000
ENDCHAR
STARTCHAR degree
ENCODING 176
SWIDTH 407 0
DWIDTH 15 0
BBX 14 14 1 15
BITMAP
0FC0
3FE0
7FF0
7FF8
FCF8
F878
F07C
F078
F8F8
FFF8
7FF0
3FF0
1FC0
0300
ENDCHAR
STARTCHAR plusminus
ENCODING 177
SWIDTH 505 0
DWIDTH 19 0
BBX 17 21 1 0
BITMAP
01C000
03E000
03E000
03E000
03E000
FFFF80
FFFF80
FFFF80
FFFF80
FFFF80
03E000
03E000
03E000
03E000
000000
000000
7FFF00
7FFF80
FFFF80
7FFF80
7FFF00
ENDCHAR
STARTCHAR twosuperior
ENCODING 178
SWIDTH 455 0
DWIDTH 17 0
BBX 16 21 1 8
BITMAP
0100
0FE0
3FF8
7FFC
7FFC
FFFE
FC7E
FC7E
FC7E
F87E
70FE
03FC
0FF8
1FF0
3FE0
7FFE
FFFF
FFFF
FFFF
FFFF
3FFE
ENDCHAR
STARTCHAR threesuperior
ENCODING 179
SWIDTH 457 0
DWIDTH 17 0
BBX 15 21 1 8
BITMAP
0100
0FF0
1FF8
3FFC
7FFE
7FFE
7C7E
3C7E
007E
03FC
07FC
03FE
03FE
F83E
FC3E
FC7E
FFFE
7FFE
3FFC
1FF8
0FE0
ENDCHAR
STARTCHAR acute
ENCODING 180
SWIDTH 605 0
DWIDTH 23 0
BBX 11 7 6 22
BITMAP
03C0
3FC0
FFE0
FFE0
FFC0
FF00
7800
ENDCHAR
STARTCHAR mu
ENCODING 181
SWIDTH 601 0
DWIDTH 23 0
BBX 19 28 2 -8
BITMAP
F807E0
FC07E0
FC07E0
FC07E0
FC07E0
FC07E0
FC07E0
FC07E0
FC07E0
FC07E0
FC07E0
FC0FE0
FE1FE0
FFFFE0
FFFFE0
FFFFE0
FFFFE0
FFFFE0
FFF7E0
FCC3C0
FC0000
FC0000
FC0000
FC0000
FC0000
FC0000
FC0000
FC0000
ENDCHAR
STARTCHAR paragraph
ENCODING 182
SWIDTH 614 0
DWIDTH 23 0
BBX 20 32 1 -9
BITMAP
3FFFF0
7FFFF0
7FFFF0
FFFFF0
FFF1F0
FFF1F0
FFF1F0
FFF1F0
FFF1F0
7FF1F0
7FF1F0
3FF1F0
1FF1F0
01F1F0
01F1F0
01F1F0
01F1F0
01F1F0
01F1F0
01F1F0
01F1F0
01F1F0
01F1F0
01F1F0
01F1F0
01F1F0
01F1F0
01F1F0
01F1F0
01F1F0
01F1F0
00E0E0
ENDCHAR
STARTCHAR periodcentered
ENCODING 183
SWIDTH 237 0
DWIDTH 9 0
BBX 7 7 1 8
BITMAP
7C
FE
FE
FE
FE
FE
7C
ENDCHAR
STARTCHAR cedilla
ENCODING 184
SWIDTH 559 0
DWIDTH 21 0
BBX 7 8 7 -7
BITMAP
78
FC
FE
4E
4E
FE
FC
F8
ENDCHAR
STARTCHAR onesuperior
ENCODING 185
SWIDTH 321 0
DWIDTH 12 0
BBX 10 20 1 8
BITMAP
0780
0FC0
1FC0
3FC0
7FC0
FFC0
FFC0
FFC0
7FC0
0FC0
0FC0
0FC0
0FC0
0FC0
0FC0
0FC0
0FC0
0FC0
0FC0
0780
ENDCHAR
STARTCHAR ordmasculine
ENCODING 186
SWIDTH 439 0
DWIDTH 17 0
BBX 15 15 1 12
BITMAP
07C0
1FF0
3FF8
7FFC
7FFC
FC7C
F83E
F83E
F83E
FC7C
7FFC
7FFC
3FF8
1FE0
0380
ENDCHAR
STARTCHAR guillemotright
ENCODING 187
SWIDTH 669 0
DWIDTH 25 0
BBX 24 20 1 0
BITMAP
300600
780F00
FC1F80
FE1FC0
FF1FE0
7F8FF0
3FC7F8
1FE3FC
0FF1FE
07F0FF
07F07F
0FF0FE
1FE1FC
3FC3F8
7F8FF0
FF0FE0
FE1FC0
FC1F80
780F00
300600
ENDCHAR
STARTCHAR onequarter
ENCODING 188
SWIDTH 786 0
DWIDTH 30 0
BBX 26 31 2 -1
BITMAP
00002000
0F007800
1F007000
3F00F000
7F00E000
FF01E000
FF01C000
7F03C000
0F078000
0F078000
0F0F0000
0F0F0000
0F1E0000
0F1E0000
0F3CE380
0F3CF7C0
0679F7C0
0071F7C0
00F1E7C0
00E1E7C0
01E3E7C0
01C3FFC0
03C3FFC0
0383FFC0
0783FFC0
0F01FFC0
0F0007C0
1E0007C0
1E0007C0
3C000380
1C000000
ENDCHAR
STARTCHAR onehalf
ENCODING 189
SWIDTH 804 0
DWIDTH 31 0
BBX 26 31 2 -1
BITMAP
00002000
0F007800
1F007000
3F00F000
7F00E000
FF01E000
FF01C000
7F03C000
0F078000
0F078000
0F0F0000
0F0F0000
0F1E0000
0F1E0000
0F3C7C00
0F3CFF00
0679FF80
0073FF80
00F3EFC0
00E3C7C0
01E3C7C0
01C3CF80
03C01F80
03807F00
0780FE00
0F01FC00
0F03FFC0
1E03FFC0
1E03FFC0
3C01FFC0
1C000000
ENDCHAR
STARTCHAR threequarters
ENCODING 190
SWIDTH 842 0
DWIDTH 32 0
BBX 28 31 2 -1
BITMAP
00000C00
1F801E00
3FC01E00
7FE03C00
7FF03800
79F07800
71F07000
07E0F000
0FE0E000
0FE1E000
27F1C000
F0F3C000
F9F78000
FFF78000
7FEF38E0
3FCF3DF0
1F9E3DF0
001E7DF0
003C7DF0
003C79F0
007879F0
0070FFF0
00F0FFF0
00E0FFF0
01E0FFF0
01C03FF0
03C001F0
038001F0
078001F0
070000E0
07000000
ENDCHAR
STARTCHAR questiondown
ENCODING 191
SWIDTH 511 0
DWIDTH 19 0
BBX 18 28 1 -8
BITMAP
03F000
03F000
07F000
07F000
07F000
03F000
03E000
000000
000000
000000
03E000
03F000
07F000
1FF000
3FF000
7FE000
7FC000
FE0000
FC0000
FC0F80
FC0FC0
FC1FC0
FFFFC0
7FFF80
7FFF80
3FFF00
1FFE00
07F800
ENDCHAR
STARTCHAR Agrave
ENCODING 192
SWIDTH 765 0
DWIDTH 29 0
BBX 28 37 1 0
BITMAP
00400000
00F80000
01FF0000
01FFC000
01FFC000
01FFC000
003FC000
00078000
00000000
000E0000
001F0000
003F8000
003F8000
007FC000
007FC000
00FFE000
00FFE000
01FFF000
01FFF000
03FFF800
03FBF800
07FBFC00
07F1FC00
0FF1FE00
0FE0FE00
0FFFFF00
1FFFFF00
1FFFFF80
3FFFFF80
3FFFFF80
7FFFFFC0
7F001FC0
FF001FE0
FE000FE0
FE000FF0
FC0007E0
7C0007C0
ENDCHAR
STARTCHAR Aacute
ENCODING 193
SWIDTH 765 0
DWIDTH 29 0
BBX 28 37 1 0
BITMAP
0000E000
0007F000
003FF000
007FF000
007FF000
007FE000
003F0000
00100000
00000000
000E0000
001F0000
003F8000
003F8000
007FC000
007FC000
00FFE000
00FFE000
01FFF000
01FFF000
03FFF800
03FBF800
07FBFC00
07F1FC00
0FF1FE00
0FE0FE00
0FFFFF00
1FFFFF00
1FFFFF80
3FFFFF80
3FFFFF80
7FFFFFC0
7F001FC0
FF001FE0
FE000FE0
FE000FF0
FC0007E0
7C0007C0
ENDCHAR
STARTCHAR Acircumflex
ENCODING 194
SWIDTH 765 0
DWIDTH 29 0
BBX 28 37 1 0
BITMAP
000F0000
007FE000
03FFF800
03FFF800
03FFF800
01FBF800
01E0F000
00000000
00000000
000E0000
001F0000
003F8000
003F8000
007FC000
007FC000
00FFE000
00FFE000
01FFF000
01FFF000
03FFF800
03FBF800
07FBFC00
07F1FC00
0FF1FE00
0FE0FE00
0FFFFF00
1FFFFF00
1FFFFF80
3FFFFF80
3FFFFF80
7FFFFFC0
7F001FC0
FF001FE0
FE000FE0
FE000FF0
FC0007E0
7C0007C0
ENDCHAR
STARTCHAR Atilde
ENCODING 195
SWIDTH 765 0
DWIDTH 29 0
BBX 28 37 1 0
BITMAP
00787000
00FE7800
01FFF800
03FFF800
03FFF000
03CFE000
00C3C000
00000000
00000000
000E0000
001F0000
003F8000
003F8000
007FC000
007FC000
00FFE000
00FFE000
01FFF000
01FFF000
03FFF800
03FBF800
07FBFC00
07F1FC00
0FF1FE00
0FE0FE00
0FFFFF00
1FFFFF00
1FFFFF80
3FFFFF80
3FFFFF80
7FFFFFC0
7F001FC0
FF001FE0
FE000FE0
FE000FF0
FC0007E0
7C0007C0
ENDCHAR
STARTCHAR Adieresis
ENCODING 196
SWIDTH 765 0
DWIDTH 29 0
BBX 28 37 1 0
BITMAP
03E0F800
07F0FC00
07F1FC00
07F1FC00
07F1FC00
07F0FC00
03E07800
00000000
00000000
000E0000
001F0000
003F8000
003F8000
007FC000
007FC000
00FFE000
00FFE000
01FFF000
01FFF000
03FFF800
03FBF800
07FBFC00
07F1FC00
0FF1FE00
0FE0FE00
0FFFFF00
1FFFFF00
1FFFFF80
3FFFFF80
3FFFFF80
7FFFFFC0
7F001FC0
FF001FE0
FE000FE0
FE000FF0
FC0007E0
7C0007C0
ENDCHAR
STARTCHAR Aring
ENCODING 197
SWIDTH 765 0
DWIDTH 29 0
BBX 28 35 1 0
BITMAP
000F0000
003F8000
007FC000
0071C000
0060C000
0060C000
0071C000
007FC000
003F8000
003F8000
003F8000
007FC000
007FC000
00FFE000
00FFE000
01FFF000
01FFF000
03FFF800
03FBF800
07FBFC00
07F1FC00
0FF1FE00
0FE0FE00
0FFFFF00
1FFFFF00
1FFFFF80
3FFFFF80
3FFFFF80
7FFFFFC0
7F001FC0
FF001FE0
FE000FE0
FE000FF0
FC0007E0
7C0007C0
ENDCHAR
STARTCHAR AE
ENCODING 198
SWIDTH 1148 0
DWIDTH 44 0
BBX 43 28 0 0
BITMAP
000007FFFFC0
00000FFFFFC0
00001FFFFFE0
00003FFFFFE0
00007FFFFFE0
0000FFFFFFC0
0000FFFFFF80
0001FFF00000
0003FFF00000
0007FFF00000
000FFFF00000
001FF7FFFC00
003FE7FFFC00
007FC7FFFC00
00FF87FFFE00
01FF07FFFC00
03FF07FFFC00
03FFFFF00000
07FFFFF00000
0FFFFFF00000
1FFFFFF00000
3FFFFFFFFF80
7FC007FFFFC0
FF8007FFFFE0
FF0007FFFFE0
FE0007FFFFE0
7C0003FFFFC0
3C0001FFFFC0
ENDCHAR
STARTCHAR Ccedilla
ENCODING 199
SWIDTH 679 0
DWIDTH 26 0
BBX 24 35 1 -7
BITMAP
003FE0
00FFF8
03FFFC
07FFFF
1FFFFF
1FFFFF
3FFFFE
7FE03C
7F8008
7F0000
FF0000
FE0000
FE0000
FE0000
FE0000
FE0000
FE0000
FE0000
7F0000
7F8008
7FC03C
3FFDFE
1FFFFE
1FFFFF
07FFFF
03FFFE
01FFF8
003FE0
001F80
001FC0
001FC0
0001C0
001FC0
001F80
001F00
ENDCHAR
STARTCHAR Egrave
ENCODING 200
SWIDTH 638 0
DWIDTH 24 0
BBX 21 37 2 0
BITMAP
010000
03E000
07FC00
07FF00
07FF00
03FF00
00FF00
001E00
000000
7FFFF0
FFFFF8
FFFFF8
FFFFF8
FFFFF8
FFFFF8
FFFFF0
FC0000
FC0000
FC0000
FC0000
FFFF80
FFFF80
FFFF80
FFFF80
FFFF80
FFFF80
FC0000
FC0000
FC0000
FC0000
FFFFF0
FFFFF8
FFFFF8
FFFFF8
FFFFF8
FFFFF8
FFFFF0
ENDCHAR
STARTCHAR Eacute
ENCODING 201
SWIDTH 638 0
DWIDTH 24 0
BBX 21 37 2 0
BITMAP
000700
007F00
03FF80
03FF80
03FF80
03FE00
03F000
018000
000000
7FFFF0
FFFFF8
FFFFF8
FFFFF8
FFFFF8
FFFFF8
FFFFF0
FC0000
FC0000
FC0000
FC0000
FFFF80
FFFF80
FFFF80
FFFF80
FFFF80
FFFF80
FC0000
FC0000
FC0000
FC0000
FFFFF0
FFFFF8
FFFFF8
FFFFF8
FFFFF8
FFFFF8
FFFFF0
ENDCHAR
STARTCHAR Ecircumflex
ENCODING 202
SWIDTH 638 0
DWIDTH 24 0
BBX 21 37 2 0
BITMAP
00F000
07FE00
1FFF80
1FFFC0
1FFFC0
1FDF80
0F0780
000000
000000
7FFFF0
FFFFF8
FFFFF8
FFFFF8
FFFFF8
FFFFF8
FFFFF0
FC0000
FC0000
FC0000
FC0000
FFFF80
FFFF80
FFFF80
FFFF80
FFFF80
FFFF80
FC0000
FC0000
FC0000
FC0000
FFFFF0
FFFFF8
FFFFF8
FFFFF8
FFFFF8
FFFFF8
FFFFF0
ENDCHAR
STARTCHAR Edieresis
ENCODING 203
SWIDTH 638 0
DWIDTH 24 0
BBX 21 37 2 0
BITMAP
1F07C0
3F8FE0
3F8FE0
3F8FE0
3F8FE0
3F87E0
1F07C0
000000
000000
7FFFF0
FFFFF8
FFFFF8
FFFFF8
FFFFF8
FFFFF8
FFFFF0
FC0000
FC0000
FC0000
FC0000
FFFF80
FFFF80
FFFF80
FFFF80
FFFF80
FFFF80
FC0000
FC0000
FC0000
FC0000
FFFFF0
FFFFF8
FFFFF8
FFFFF8
FFFFF8
FFFFF8
FFFFF0
ENDCHAR
STARTCHAR Igrave
ENCODING 204
SWIDTH 267 0
DWIDTH 10 0
BBX 11 37 -2 0
BITMAP
2000
7C00
FF80
FFE0
FFE0
7FE0
1FE0
03C0
0000
0780
0FC0
0FC0
0FC0
0FC0
0FC0
0FC0
0FC0
0FC0
0FC0
0FC0
0FC0
0FC0
0FC0
0FC0
0FC0
0FC0
0FC0
0FC0
0FC0
0FC0
0FC0
0FC0
0FC0
0FC0
0FC0
0FC0
0780
ENDCHAR
STARTCHAR Iacute
ENCODING 205
SWIDTH 269 0
DWIDTH 10 0
BBX 11 37 1 0
BITMAP
01C0
0FC0
7FE0
FFE0
FFE0
FFC0
7C00
6000
0000
3C00
7E00
7E00
7E00
7E00
7E00
7E00
7E00
7E00
7E00
7E00
7E00
7E00
7E00
7E00
7E00
7E00
7E00
7E00
7E00
7E00
7E00
7E00
7E00
7E00
7E00
7E00
3E00
ENDCHAR
STARTCHAR Icircumflex
ENCODING 206
SWIDTH 270 0
DWIDTH 10 0
BBX 15 37 -2 0
BITMAP
0780
3FF0
FFFC
FFFE
FFFE
FFFC
783C
0000
0000
0780
0FC0
0FC0
0FC0
0FC0
0FC0
0FC0
0FC0
0FC0
0FC0
0FC0
0FC0
0FC0
0FC0
0FC0
0FC0
0FC0
0FC0
0FC0
0FC0
0FC0
0FC0
0FC0
0FC0
0FC0
0FC0
0FC0
07C0
ENDCHAR
STARTCHAR Idieresis
ENCODING 207
SWIDTH 268 0
DWIDTH 10 0
BBX 17 37 -3 0
BITMAP
7C1F00
FC3F80
FC3F80
FE3F80
FC3F80
FC3F00
781E00
000000
000000
03C000
07E000
07E000
07F000
07F000
07F000
07F000
07F000
07F000
07F000
07F000
07F000
07F000
07F000
07F000
07F000
07F000
07F000
07F000
07F000
07F000
07F000
07F000
07F000
07F000
07F000
07E000
03E000
ENDCHAR
STARTCHAR Eth
ENCODING 208
SWIDTH 775 0
DWIDTH 29 0
BBX 28 28 1 0
BITMAP
0FFF8000
1FFFF000
1FFFF800
1FFFFE00
1FFFFF00
1FFFFF80
1FFFFF80
1FC0FFC0
1FC03FC0
1FC01FE0
1FC00FE0
3FE00FE0
FFF807E0
FFF807F0
FFF807E0
FFF807E0
3FE00FE0
1FC00FE0
1FC01FE0
1FC03FC0
1FC07FC0
1FFFFF80
1FFFFF80
1FFFFF00
1FFFFE00
1FFFFC00
1FFFF000
0FFF8000
ENDCHAR
STARTCHAR Ntilde
ENCODING 209
SWIDTH 720 0
DWIDTH 27 0
BBX 24 37 2 0
BITMAP
01F0C0
03F9E0
07FFE0
0FFFE0
0FFFC0
073F80
030F00
000000
000000
78003E
FC007F
FE007F
FF007F
FF007F
FF807F
FFC07F
FFE07F
FFE07F
FFF07F
FFF87F
FFFC7F
FFFC7F
FDFE7F
FCFF7F
FC7FFF
FC7FFF
FC3FFF
FC1FFF
FC0FFF
FC0FFF
FC07FF
FC03FF
FC01FF
FC00FF
FC00FF
FC007F
F8003E
ENDCHAR
STARTCHAR Ograve
ENCODING 210
SWIDTH 775 0
DWIDTH 29 0
BBX 28 37 1 0
BITMAP
00400000
00F80000
00FF0000
01FFC000
01FFE000
00FFC000
003FC000
0003C000
00000000
003FC000
01FFF000
03FFFC00
0FFFFE00
1FFFFF00
1FFFFF80
3FFFFF80
7FC07FC0
7F803FC0
7F001FE0
FE000FE0
FE000FE0
FE0007E0
FE0007F0
FE0007E0
FE0007E0
FE000FE0
FE000FE0
7F000FE0
7F801FE0
7FC03FC0
3FF1FFC0
3FFFFF80
1FFFFF00
0FFFFE00
07FFFC00
01FFF800
007FE000
ENDCHAR
STARTCHAR Oacute
ENCODING 211
SWIDTH 775 0
DWIDTH 29 0
BBX 28 37 1 0
BITMAP
0000E000
0007F000
003FF000
007FF000
007FF000
007FE000
003E0000
00300000
00000000
003FC000
01FFF000
03FFFC00
0FFFFE00
1FFFFF00
1FFFFF80
3FFFFF80
7FC07FC0
7F803FC0
7F001FE0
FE000FE0
FE000FE0
FE0007E0
FE0007F0
FE0007E0
FE0007E0
FE000FE0
FE000FE0
7F000FE0
7F801FE0
7FC03FC0
3FF1FFC0
3FFFFF80
1FFFFF00
0FFFFE00
07FFFC00
01FFF800
007FE000
ENDCHAR
STARTCHAR Ocircumflex
ENCODING 212
SWIDTH 775 0
DWIDTH 29 0
BBX 28 37 1 0
BITMAP
000F0000
007FE000
01FFF800
03FFF800
03FFF800
01FFF800
01E0F000
00000000
00000000
003FC000
01FFF000
03FFFC00
0FFFFE00
1FFFFF00
1FFFFF80
3FFFFF80
7FC07FC0
7F803FC0
7F001FE0
FE000FE0
FE000FE0
FE0007E0
FE0007F0
FE0007E0
FE0007E0
FE000FE0
FE000FE0
7F000FE0
7F801FE0
7FC03FC0
3FF1FFC0
3FFFFF80
1FFFFF00
0FFFFE00
07FFFC00
01FFF800
007FE000
ENDCHAR
STARTCHAR Otilde
ENCODING 213
SWIDTH 775 0
DWIDTH 29 0
BBX 28 37 1 0
BITMAP
003C3800
007F3C00
00FFFC00
01FFFC00
01FFF800
01E7F000
0061E000
00000000
00000000
003FC000
01FFF000
03FFFC00
0FFFFE00
1FFFFF00
1FFFFF80
3FFFFF80
7FC07FC0
7F803FC0
7F001FE0
FE000FE0
FE000FE0
FE0007E0
FE0007F0
FE0007E0
FE0007E0
FE000FE0
FE000FE0
7F000FE0
7F801FE0
7FC03FC0
3FF1FFC0
3FFFFF80
1FFFFF00
0FFFFE00
07FFFC00
01FFF800
007FE000
ENDCHAR
STARTCHAR Odieresis
ENCODING 214
SWIDTH 775 0
DWIDTH 29 0
BBX 28 37 1 0
BITMAP
03E0F800
07F1FC00
07F1FC00
07F1FC00
07F1FC00
07F0FC00
03E07800
00000000
00000000
003FC000
01FFF000
03FFFC00
0FFFFE00
1FFFFF00
1FFFFF80
3FFFFF80
7FC07FC0
7F803FC0
7F001FE0
FE000FE0
FE000FE0
FE0007E0
FE0007F0
FE0007E0
FE0007E0
FE000FE0
FE000FE0
7F000FE0
7F801FE0
7FC03FC0
3FF1FFC0
3FFFFF80
1FFFFF00
0FFFFE00
07FFFC00
01FFF800
007FE000
ENDCHAR
STARTCHAR multiply
ENCODING 215
SWIDTH 521 0
DWIDTH 20 0
BBX 18 18 1 1
BITMAP
380700
7C0F80
FE1FC0
FF3FC0
FFFF80
7FFF80
3FFF00
1FFE00
0FFC00
0FFC00
1FFE00
3FFF00
7FFF80
FFFFC0
FF3FC0
FE1FC0
7C0F80
300700
ENDCHAR
STARTCHAR Oslash
ENCODING 216
SWIDTH 775 0
DWIDTH 29 0
BBX 28 32 1 -2
BITMAP
00003000
00003C00
007FFE00
01FFFE00
03FFFE00
0FFFFE00
1FFFFF00
1FFFFF80
3FFFFF80
7FC3FFC0
7F87FFC0
7F07FFE0
FE0FEFE0
FE0FEFE0
FE1FC7E0
FE1FC7E0
FE3F87F0
FE3F87E0
FE7F0FE0
FE7F0FE0
7FFE0FE0
7FFE1FE0
7FFC3FC0
3FFDFFC0
3FFFFF80
1FFFFF00
0FFFFE00
07FFFC00
07FFF800
07FFE000
07E00000
01C00000
ENDCHAR
STARTCHAR Ugrave
ENCODING 217
SWIDTH 726 0
DWIDTH 28 0
BBX 24 37 2 0
BITMAP
020000
07C000
0FF800
0FFE00
0FFE00
07FE00
01FE00
003C00
000000
78001E
FC003F
FC007F
FC007F
FC007F
FC007F
FC007F
FC007F
FC007F
FC007F
FC007F
FC007F
FC007F
FC007F
FC007F
FC007F
FC007F
FE007F
FE007F
FF00FE
7F01FE
7FC7FE
3FFFFC
3FFFF8
1FFFF8
0FFFF0
07FFC0
01FF00
ENDCHAR
STARTCHAR Uacute
ENCODING 218
SWIDTH 726 0
DWIDTH 28 0
BBX 24 37 2 0
BITMAP
0001C0
000FE0
007FE0
00FFE0
00FFE0
00FFC0
007C00
006000
000000
78001E
FC003F
FC007F
FC007F
FC007F
FC007F
FC007F
FC007F
FC007F
FC007F
FC007F
FC007F
FC007F
FC007F
FC007F
FC007F
FC007F
FE007F
FE007F
FF00FE
7F01FE
7FC7FE
3FFFFC
3FFFF8
1FFFF8
0FFFF0
07FFC0
01FF00
ENDCHAR
STARTCHAR Ucircumflex
ENCODING 219
SWIDTH 726 0
DWIDTH 28 0
BBX 24 37 2 0
BITMAP
003C00
01FF80
07FFE0
07FFF0
07FFF0
07F7E0
03C1E0
000000
000000
78001E
FC003F
FC007F
FC007F
FC007F
FC007F
FC007F
FC007F
FC007F
FC007F
FC007F
FC007F
FC007F
FC007F
FC007F
FC007F
FC007F
FE007F
FE007F
FF00FE
7F01FE
7FC7FE
3FFFFC
3FFFF8
1FFFF8
0FFFF0
07FFC0
01FF00
ENDCHAR
STARTCHAR Udieresis
ENCODING 220
SWIDTH 726 0
DWIDTH 28 0
BBX 24 37 2 0
BITMAP
0F83E0
0FC3F0
1FC3F0
1FC3F0
1FC3F0
0FC3F0
0781E0
000000
000000
78001E
FC003F
FC007F
FC007F
FC007F
FC007F
FC007F
FC007F
FC007F
FC007F
FC007F
FC007F
FC007F
FC007F
FC007F
FC007F
FC007F
FE007F
FE007F
FF00FE
7F01FE
7FC7FE
3FFFFC
3FFFF8
1FFFF8
0FFFF0
07FFC0
01FF00
ENDCHAR
STARTCHAR Yacute
ENCODING 221
SWIDTH 686 0
DWIDTH 26 0
BBX 25 37 1 0
BITMAP
00038000
001FC000
00FFC000
01FFC000
01FFC000
01FF8000
00FC0000
00600000
00000000
38001C00
FC003F00
FE007F00
FE007F80
FF00FF00
7F81FE00
7F81FE00
3FC3FC00
1FC3F800
1FE7F800
0FFFF000
07FFE000
07FFE000
03FFC000
01FF8000
01FF8000
00FF0000
007E0000
007E0000
007E0000
007E0000
007E0000
007E0000
007E0000
007E0000
007E0000
007E0000
007E0000
ENDCHAR
STARTCHAR Thorn
ENCODING 222
SWIDTH 634 0
DWIDTH 24 0
BBX 21 28 2 0
BITMAP
780000
FC0000
FC0000
FC0000
FFFC00
FFFF00
FFFFC0
FFFFE0
FFFFE0
FFFFF0
FFFFF0
FC07F8
FC03F8
FC03F8
FC03F8
FC03F8
FC07F8
FFFFF8
FFFFF0
FFFFF0
FFFFE0
FFFFC0
FFFF00
FFFE00
FC0000
FC0000
FC0000
780000
ENDCHAR
STARTCHAR germandbls
ENCODING 223
SWIDTH 633 0
DWIDTH 24 0
BBX 21 30 2 -1
BITMAP
004000
0FFE00
3FFF80
7FFF80
FFFFC0
FFFFC0
FE1FC0
FC1FC0
FC1F80
FC3F80
FC7F00
FC7E00
FC7E00
FC7E00
FC7F00
FC7F80
FC3FC0
FC3FE0
FC0FF0
FC07F8
FC03F8
FC01F8
FC61F8
FC7FF8
FCFFF8
FCFFF8
FCFFF0
FCFFE0
FC3FC0
F80000
ENDCHAR
STARTCHAR agrave
ENCODING 224
SWIDTH 596 0
DWIDTH 23 0
BBX 20 29 1 0
BITMAP
03E000
03FC00
07FF00
07FF00
03FF00
00FF00
001F00
000000
000000
03E3E0
0FFBF0
1FFFF0
3FFFF0
3FFFF0
7FFFF0
7FFFF0
FF0FF0
FE07F0
FE07F0
FE07F0
FE07F0
FF0FF0
7FFFF0
7FFFF0
3FFFF0
3FFFF0
1FFFF0
07FBF0
03E1E0
ENDCHAR
STARTCHAR aacute
ENCODING 225
SWIDTH 596 0
DWIDTH 23 0
BBX 20 29 1 0
BITMAP
000F00
00FF80
03FF80
03FF80
03FF80
03FC00
01E000
000000
000000
03E3E0
0FFBF0
1FFFF0
3FFFF0
3FFFF0
7FFFF0
7FFFF0
FF0FF0
FE07F0
FE07F0
FE07F0
FE07F0
FF0FF0
7FFFF0
7FFFF0
3FFFF0
3FFFF0
1FFFF0
07FBF0
03E1E0
ENDCHAR
STARTCHAR acircumflex
ENCODING 226
SWIDTH 596 0
DWIDTH 23 0
BBX 20 29 1 0
BITMAP
00FE00
07FFC0
0FFFE0
0FFFE0
0FFFE0
07C7C0
030180
000000
000000
03E3E0
0FFBF0
1FFFF0
3FFFF0
3FFFF0
7FFFF0
7FFFF0
FF0FF0
FE07F0
FE07F0
FE07F0
FE07F0
FF0FF0
7FFFF0
7FFFF0
3FFFF0
3FFFF0
1FFFF0
07FBF0
03E1E0
ENDCHAR
STARTCHAR atilde
ENCODING 227
SWIDTH 596 0
DWIDTH 23 0
BBX 20 29 1 0
BITMAP
03F1C0
07FBE0
0FFFE0
0FFFC0
0FFFC0
071F80
020400
000000
000000
03E3E0
0FFBF0
1FFFF0
3FFFF0
3FFFF0
7FFFF0
7FFFF0
FF0FF0
FE07F0
FE07F0
FE07F0
FE07F0
FF0FF0
7FFFF0
7FFFF0
3FFFF0
3FFFF0
1FFFF0
07FBF0
03E1E0
ENDCHAR
STARTCHAR adieresis
ENCODING 228
SWIDTH 596 0
DWIDTH 23 0
BBX 20 29 1 0
BITMAP
1F83E0
1FC7F0
1FC7F0
1FC7F0
1FC7F0
1F83E0
000000
000000
000000
03E3E0
0FFBF0
1FFFF0
3FFFF0
3FFFF0
7FFFF0
7FFFF0
FF0FF0
FE07F0
FE07F0
FE07F0
FE07F0
FF0FF0
7FFFF0
7FFFF0
3FFFF0
3FFFF0
1FFFF0
07FBF0
03E1E0
ENDCHAR
STARTCHAR aring
ENCODING 229
SWIDTH 596 0
DWIDTH 23 0
BBX 20 29 1 0
BITMAP
001000
007C00
00EE00
00C600
00C600
00C600
00FE00
007C00
000000
03E3E0
0FFBF0
1FFFF0
3FFFF0
3FFFF0
7FFFF0
7FFFF0
FF0FF0
FE07F0
FE07F0
FE07F0
FE07F0
FF0FF0
7FFFF0
7FFFF0
3FFFF0
3FFFF0
1FFFF0
07FBF0
03E1E0
ENDCHAR
STARTCHAR ae
ENCODING 230
SWIDTH 910 0
DWIDTH 35 0
BBX 33 20 1 0
BITMAP
07F81FF000
1FFE7FF800
3FFFFFFE00
7FFFFFFE00
FFFFFFFF00
7FFFFFFF00
7E1FF83F80
3C0FF03F80
000FF07F80
0387FFFF00
3FFFFFFF00
7FFFFFFE00
FFFFF00000
FC07F80000
FC07FEFE00
FE1FFFFE00
FFFFFFFF00
7FFEFFFF00
7FFC7FFE00
1FF01FF800
ENDCHAR
STARTCHAR ccedilla
ENCODING 231
SWIDTH 524 0
DWIDTH 20 0
BBX 18 27 1 -7
BITMAP
03FE00
0FFF00
1FFFC0
3FFFC0
7FFFC0
7FFF80
FFDF80
FF0700
FE0000
FE0000
FE0000
FE0000
FF0700
7FFF80
7FFF80
3FFFC0
3FFFC0
1FFF80
07FF00
03FE00
01F800
01FC00
00BC00
009C00
01FC00
01F800
01F000
ENDCHAR
STARTCHAR egrave
ENCODING 232
SWIDTH 573 0
DWIDTH 22 0
BBX 20 30 1 -1
BITMAP
07C000
07F800
0FFE00
0FFF00
07FE00
01FE00
003E00
000000
000000
03FE00
0FFF80
1FFFC0
3FFFE0
7FFFE0
7FFFF0
FF07F0
FE07F0
FE07F0
FFFFF0
FFFFE0
FFFFC0
FE0000
FF0000
7FCFC0
7FFFC0
3FFFE0
1FFFE0
0FFFC0
03FF80
003000
ENDCHAR
STARTCHAR eacute
ENCODING 233
SWIDTH 573 0
DWIDTH 22 0
BBX 20 30 1 -1
BITMAP
001F00
00FF00
03FF00
07FF80
03FF00
03FC00
03E000
000000
000000
03FE00
0FFF80
1FFFC0
3FFFE0
7FFFE0
7FFFF0
FF07F0
FE07F0
FE07F0
FFFFF0
FFFFE0
FFFFC0
FE0000
FF0000
7FCFC0
7FFFC0
3FFFE0
1FFFE0
0FFFC0
03FF80
003000
ENDCHAR
STARTCHAR ecircumflex
ENCODING 234
SWIDTH 573 0
DWIDTH 22 0
BBX 20 30 1 -1
BITMAP
01F800
0FFF00
1FFFC0
1FFFC0
1FFFC0
1F9F80
060300
000000
000000
03FE00
0FFF80
1FFFC0
3FFFE0
7FFFE0
7FFFF0
FF07F0
FE07F0
FE07F0
FFFFF0
FFFFE0
FFFFC0
FE0000
FF0000
7FCFC0
7FFFC0
3FFFE0
1FFFE0
0FFFC0
03FF80
003000
ENDCHAR
STARTCHAR edieresis
ENCODING 235
SWIDTH 573 0
DWIDTH 22 0
BBX 20 30 1 -1
BITMAP
3F0FC0
3F0FC0
7F0FC0
7F0FE0
3F0FC0
3F0FC0
000000
000000
000000
03FE00
0FFF80
1FFFC0
3FFFE0
7FFFE0
7FFFF0
FF07F0
FE07F0
FE07F0
FFFFF0
FFFFE0
FFFFC0
FE0000
FF0000
7FCFC0
7FFFC0
3FFFE0
1FFFE0
0FFFC0
03FF80
003000
ENDCHAR
STARTCHAR igrave
ENCODING 236
SWIDTH 255 0
DWIDTH 10 0
BBX 11 29 -2 0
BITMAP
7C00
7F80
FFE0
FFE0
7FE0
1FE0
03E0
0000
0000
0F80
0FC0
0FC0
0FC0
0FC0
0FC0
0FC0
0FC0
0FC0
0FC0
0FC0
0FC0
0FC0
0FC0
0FC0
0FC0
0FC0
0FC0
0FC0
0F80
ENDCHAR
STARTCHAR iacute
ENCODING 237
SWIDTH 255 0
DWIDTH 10 0
BBX 11 29 1 0
BITMAP
07C0
3FC0
FFE0
FFE0
FFC0
FF00
F800
0000
0000
7C00
7E00
7E00
7E00
7E00
7E00
7E00
7E00
7E00
7E00
7E00
7E00
7E00
7E00
7E00
7E00
7E00
7E00
7E00
7C00
ENDCHAR
STARTCHAR icircumflex
ENCODING 238
SWIDTH 255 0
DWIDTH 10 0
BBX 15 29 -3 0
BITMAP
07E0
3FFC
FFFE
FFFE
7FFE
7E7E
301C
0000
0000
07C0
07E0
07E0
07E0
07E0
07E0
07E0
07E0
07E0
07E0
07E0
07E0
07E0
07E0
07E0
07E0
07E0
07E0
07E0
07C0
ENDCHAR
STARTCHAR idieresis
ENCODING 239
SWIDTH 255 0
DWIDTH 10 0
BBX 17 29 -4 0
BITMAP
7E1F80
FE1F80
FE1F80
FE1F80
FE1F80
7E1F80
000000
000000
000000
03E000
03F000
03F000
03F000
03F000
03F000
03F000
03F000
03F000
03F000
03F000
03F000
03F000
03F000
03F000
03F000
03F000
03F000
03F000
03E000
ENDCHAR
STARTCHAR eth
ENCODING 240
SWIDTH 585 0
DWIDTH 22 0
BBX 20 31 1 0
BITMAP
000800
001C00
03FC00
07F800
07F800
07FC00
03FE00
03FF00
07FF80
038FC0
0107C0
0047E0
03FFE0
0FFFE0
1FFFF0
3FFFF0
7FFFF0
7FFFF0
FF07F0
FE07F0
FE03F0
FC03F0
FE07F0
FE07F0
FF9FF0
7FFFE0
7FFFE0
3FFFC0
1FFF80
0FFF00
03FC00
ENDCHAR
STARTCHAR ntilde
ENCODING 241
SWIDTH 606 0
DWIDTH 23 0
BBX 20 29 2 0
BITMAP
0FC700
1FFF80
1FFF80
3FFF80
3FFF00
1C7E00
081800
000000
000000
F8FC00
FDFE00
FFFF80
FFFF80
FFFFC0
FFFFE0
FFFFE0
FE0FE0
FC07E0
FC07F0
FC07F0
FC07F0
FC07F0
FC07F0
FC07F0
FC07F0
FC07F0
FC07F0
FC07E0
F803E0
ENDCHAR
STARTCHAR ograve
ENCODING 242
SWIDTH 600 0
DWIDTH 23 0
BBX 21 29 1 0
BITMAP
03C000
07F800
07FF00
07FF00
07FF00
01FF00
001E00
000000
000000
03FE00
0FFF80
1FFFC0
3FFFE0
7FFFE0
7FFFF0
FF8FF0
FE07F8
FE03F8
FE03F8
FE03F8
FE03F8
FF07F8
7FDFF0
7FFFF0
3FFFE0
3FFFE0
1FFFC0
0FFF00
03FE00
ENDCHAR
STARTCHAR oacute
ENCODING 243
SWIDTH 600 0
DWIDTH 23 0
BBX 21 29 1 0
BITMAP
001F00
00FF00
03FF80
03FF80
03FF00
03FC00
01E000
000000
000000
03FE00
0FFF80
1FFFC0
3FFFE0
7FFFE0
7FFFF0
FF8FF0
FE07F8
FE03F8
FE03F8
FE03F8
FE03F8
FF07F8
7FDFF0
7FFFF0
3FFFE0
3FFFE0
1FFFC0
0FFF00
03FE00
ENDCHAR
STARTCHAR ocircumflex
ENCODING 244
SWIDTH 600 0
DWIDTH 23 0
BBX 21 29 1 0
BITMAP
01FC00
0FFF80
1FFFC0
1FFFC0
1FFFC0
0F8F80
060300
000000
000000
03FE00
0FFF80
1FFFC0
3FFFE0
7FFFE0
7FFFF0
FF8FF0
FE07F8
FE03F8
FE03F8
FE03F8
FE03F8
FF07F8
7FDFF0
7FFFF0
3FFFE0
3FFFE0
1FFFC0
0FFF00
03FE00
ENDCHAR
STARTCHAR otilde
ENCODING 245
SWIDTH 600 0
DWIDTH 23 0
BBX 21 29 1 0
BITMAP
07E380
0FFFC0
1FFFC0
1FFF80
1FFF80
0E3F00
040800
000000
000000
03FE00
0FFF80
1FFFC0
3FFFE0
7FFFE0
7FFFF0
FF8FF0
FE07F8
FE03F8
FE03F8
FE03F8
FE03F8
FF07F8
7FDFF0
7FFFF0
3FFFE0
3FFFE0
1FFFC0
0FFF00
03FE00
ENDCHAR
STARTCHAR odieresis
ENCODING 246
SWIDTH 600 0
DWIDTH 23 0
BBX 21 29 1 0
BITMAP
3F0FC0
3F0FE0
3F0FE0
3F8FE0
3F0FE0
3F0FC0
000000
000000
000000
03FE00
0FFF80
1FFFC0
3FFFE0
7FFFE0
7FFFF0
FF8FF0
FE07F8
FE03F8
FE03F8
FE03F8
FE03F8
FF07F8
7FDFF0
7FFFF0
3FFFE0
3FFFE0
1FFFC0
0FFF00
03FE00
ENDCHAR
STARTCHAR divide
ENCODING 247
SWIDTH 503 0
DWIDTH 19 0
BBX 17 21 1 0
BITMAP
01C000
03E000
07F000
07F000
07F000
03E000
000000
000000
FFFF80
FFFF80
FFFF80
FFFF80
FFFF80
000000
000000
03E000
03F000
07F000
07F000
03E000
03E000
ENDCHAR
STARTCHAR oslash
ENCODING 248
SWIDTH 600 0
DWIDTH 23 0
BBX 21 32 1 -6
BITMAP
000180
0003E0
0007F0
0007F0
000FE0
000FE0
03FFC0
0FFFC0
1FFFC0
3FFFE0
7FFFE0
7FFFF0
FF8FF0
FF07F8
FE03F8
FE03F8
FE03F8
FE03F8
FF07F8
7F9FF0
7FFFF0
7FFFE0
3FFFE0
1FFFC0
1FFF00
3FFE00
3F8000
7F0000
7F0000
7E0000
3E0000
1C0000
ENDCHAR
STARTCHAR ugrave
ENCODING 249
SWIDTH 606 0
DWIDTH 23 0
BBX 20 29 2 0
BITMAP
078000
0FF000
0FFE00
0FFE00
0FFE00
03FC00
003C00
000000
000000
F803E0
FC07E0
FC07E0
FC07F0
FC07F0
FC07F0
FC07F0
FC07F0
FC07F0
FC07F0
FC07F0
FC07F0
FE0FF0
FFFFF0
FFFFF0
7FFFF0
3FFFF0
3FFFF0
0FF7E0
03C3E0
ENDCHAR
STARTCHAR uacute
ENCODING 250
SWIDTH 606 0
DWIDTH 23 0
BBX 20 29 2 0
BITMAP
001F00
00FF00
03FF00
07FF00
07FF00
03FC00
03E000
000000
000000
F803E0
FC07E0
FC07E0
FC07F0
FC07F0
FC07F0
FC07F0
FC07F0
FC07F0
FC07F0
FC07F0
FC07F0
FE0FF0
FFFFF0
FFFFF0
7FFFF0
3FFFF0
3FFFF0
0FF7E0
03C3E0
ENDCHAR
STARTCHAR ucircumflex
ENCODING 251
SWIDTH 606 0
DWIDTH 23 0
BBX 20 29 2 0
BITMAP
01F800
0FFF00
3FFF80
3FFF80
3FFF80
1F9F00
0C0700
000000
000000
F803E0
FC07E0
FC07E0
FC07F0
FC07F0
FC07F0
FC07F0
FC07F0
FC07F0
FC07F0
FC07F0
FC07F0
FE0FF0
FFFFF0
FFFFF0
7FFFF0
3FFFF0
3FFFF0
0FF7E0
03C3E0
ENDCHAR
STARTCHAR udieresis
ENCODING 252
SWIDTH 606 0
DWIDTH 23 0
BBX 20 29 2 0
BITMAP
7E0F80
7F1FC0
7F1FC0
7F1FC0
7F1FC0
7E0F80
000000
000000
000000
F803E0
FC07E0
FC07E0
FC07F0
FC07F0
FC07F0
FC07F0
FC07F0
FC07F0
FC07F0
FC07F0
FC07F0
FE0FF0
FFFFF0
FFFFF0
7FFFF0
3FFFF0
3FFFF0
0FF7E0
03C3E0
ENDCHAR
STARTCHAR yacute
ENCODING 253
SWIDTH 604 0
DWIDTH 23 0
BBX 21 38 1 -9
BITMAP
000F00
007F80
03FF80
03FF80
03FF80
01FE00
01E000
000000
000000
7801F0
FC01F8
FE03F8
FE03F8
FF03F8
7F07F0
7F87F0
3FCFE0
1FCFE0
1FFFE0
0FFFC0
0FFFC0
07FF80
03FF80
03FF00
01FF00
01FE00
00FE00
01FE00
01FC00
03FC00
03F800
03F800
07F000
07F000
0FE000
0FE000
07E000
01C000
ENDCHAR
STARTCHAR thorn
ENCODING 254
SWIDTH 580 0
DWIDTH 22 0
BBX 19 39 2 -9
BITMAP
780000
F80000
FC0000
FC0000
FC0000
FC0000
FC0000
FC0000
FC0000
FC0000
FCF800
FFFE00
FFFF00
FFFF80
FFFF80
FFFFC0
FFFFC0
FE1FE0
FC0FE0
FC0FE0
FC0FE0
FC0FE0
FE1FE0
FFFFC0
FFFFC0
FFFF80
FFFF80
FFFF00
FFFC00
FCF800
FC0000
FC0000
FC0000
FC0000
FC0000
FC0000
FC0000
F80000
200000
ENDCHAR
STARTCHAR ydieresis
ENCODING 255
SWIDTH 604 0
DWIDTH 23 0
BBX 21 38 1 -9
BITMAP
1F87E0
3F87E0
3F87E0
3F87E0
3F87E0
1F87E0
000000
000000
000000
7801F0
FC01F8
FE03F8
FE03F8
FF03F8
7F07F0
7F87F0
3FCFE0
1FCFE0
1FFFE0
0FFFC0
0FFFC0
07FF80
03FF80
03FF00
01FF00
01FE00
00FE00
01FE00
01FC00
03FC00
03F800
03F800
07F000
07F000
0FE000
0FE000
07E000
01C000
ENDCHAR
STARTCHAR dotlessi
ENCODING 305
SWIDTH 255 0
DWIDTH 10 0
BBX 6 20 2 0
BITMAP
F8
FC
FC
FC
FC
FC
FC
FC
FC
FC
FC
FC
FC
FC
FC
FC
FC
FC
FC
F8
ENDCHAR
STARTCHAR Lslash
ENCODING 321
SWIDTH 687 0
DWIDTH 26 0
BBX 24 28 1 0
BITMAP
03C000
07E000
0FE000
0FE000
0FE000
0FE000
0FE000
0FE000
0FE000
0FE700
0FFF00
0FFF80
3FFF80
FFFF00
FFF800
FFE000
FFE000
4FE000
0FE000
0FE000
0FE000
0FE000
0FFFFC
0FFFFF
0FFFFF
0FFFFF
07FFFF
07FFFE
ENDCHAR
STARTCHAR lslash
ENCODING 322
SWIDTH 468 0
DWIDTH 18 0
BBX 16 29 1 0
BITMAP
0FC0
0FE0
0FE0
0FE0
0FE0
0FE0
0FE0
0FE0
0FE0
0FE0
0FEE
0FFF
0FFF
3FFF
FFFF
FFF8
FFE0
FFE0
4FE0
0FE0
0FE0
0FE0
0FF0
0FFC
0FFC
0FFC
07FC
03FC
01FC
ENDCHAR
STARTCHAR OE
ENCODING 338
SWIDTH 1092 0
DWIDTH 42 0
BBX 40 28 1 0
BITMAP
003FFFFFFC
00FFFFFFFE
03FFFFFFFE
07FFFFFFFF
0FFFFFFFFE
1FFFFFFFFE
3FFFFFFFFC
7FE03F8000
7F803F8000
7F003F8000
FE003F8000
FE003FFFE0
FE003FFFE0
FE003FFFE0
FE003FFFE0
FE003FFFE0
FE003FFFE0
FE003F8000
7F003F8000
7F803F8000
7FC03F8000
3FFFFFFFFC
1FFFFFFFFE
0FFFFFFFFE
07FFFFFFFF
03FFFFFFFF
01FFFFFFFE
003FFFFFFE
ENDCHAR
STARTCHAR oe
ENCODING 339
SWIDTH 944 0
DWIDTH 36 0
BBX 34 20 1 0
BITMAP
03FE07F800
0FFF1FFE00
1FFFFFFF00
3FFFFFFF80
7FFFFFFF80
7FFFFFFFC0
FF8FFE1FC0
FF07FC1FC0
FE03F81FC0
FE03FFFFC0
FE03FFFF80
FE03FFFF00
FE07F80000
FF8FFC0000
7FFFFFFF00
7FFFFFFF80
3FFFFFFF80
1FFFFFFF80
0FFF1FFF00
03FE07FC00
ENDCHAR
STARTCHAR Scaron
ENCODING 352
SWIDTH 583 0
DWIDTH 22 0
BBX 20 37 1 0
BITMAP
0E0700
1F9F80
1FFF80
3FFFC0
1FFF80
0FFF00
01F800
000000
000000
07FE00
0FFF80
1FFFC0
3FFFC0
7FFFE0
7FFFC0
7F0F80
FE0700
FE0000
7F0000
7FC000
7FFC00
3FFF80
3FFFC0
1FFFE0
07FFF0
00FFF0
000FF0
1007F0
7C07F0
7E07F0
FF0FF0
FFFFF0
FFFFE0
7FFFE0
3FFFC0
0FFF00
07FE00
ENDCHAR
STARTCHAR scaron
ENCODING 353
SWIDTH 489 0
DWIDTH 19 0
BBX 17 29 1 0
BITMAP
7C3C00
7FFE00
FFFE00
FFFF00
7FFE00
1FF000
038000
000000
000000
0FF800
3FFE00
7FFF00
7FFF00
7FFE00
7E0C00
7E0000
7FE000
7FFC00
3FFE00
3FFF00
0FFF00
03FF80
303F80
7C3F80
FFFF00
FFFF00
FFFF00
7FFE00
1FF800
ENDCHAR
STARTCHAR Ydieresis
ENCODING 376
SWIDTH 686 0
DWIDTH 26 0
BBX 25 37 1 0
BITMAP
0F81F000
0FC3F000
0FC3F800
1FC3F800
0FC3F800
0FC3F000
0781E000
00000000
00000000
38001C00
FC003F00
FE007F00
FE007F80
FF00FF00
7F81FE00
7F81FE00
3FC3FC00
1FC3F800
1FE7F800
0FFFF000
07FFE000
07FFE000
03FFC000
01FF8000
01FF8000
00FF0000
007E0000
007E0000
007E0000
007E0000
007E0000
007E0000
007E0000
007E0000
007E0000
007E0000
007E0000
ENDCHAR
STARTCHAR Zcaron
ENCODING 381
SWIDTH 643 0
DWIDTH 24 0
BBX 22 37 1 0
BITMAP
070380
0FCFC0
0FFFE0
0FFFE0
0FFFE0
03FF80
007C00
000000
000000
7FFFF0
FFFFF8
FFFFFC
FFFFFC
FFFFFC
FFFFF8
3FFFF8
000FF0
001FE0
003FC0
007FC0
007F80
00FF00
01FF00
01FE00
03FC00
07F800
0FF800
0FF000
1FE000
3FC000
7FFFF0
7FFFFC
FFFFFC
FFFFFC
FFFFFC
FFFFFC
7FFFFC
ENDCHAR
STARTCHAR zcaron
ENCODING 382
SWIDTH 586 0
DWIDTH 22 0
BBX 20 29 1 0
BITMAP
0F0780
1FFFC0
1FFFC0
1FFFC0
0FFF80
03FE00
007000
000000
000000
3FFFC0
7FFFE0
7FFFF0
7FFFF0
7FFFF0
7FFFE0
1FFFC0
007F80
01FF00
03FE00
07FC00
0FF000
1FE000
3FFFC0
7FFFF0
FFFFF0
FFFFF0
FFFFF0
FFFFF0
3FFFE0
ENDCHAR
STARTCHAR florin
ENCODING 402
SWIDTH 529 0
DWIDTH 20 0
BBX 20 37 0 -9
BITMAP
0007E0
001FE0
003FF0
007FE0
007FE0
00FFE0
00FE00
00FC00
00FC00
07FFE0
1FFFE0
1FFFF0
1FFFE0
1FFFE0
1FFFE0
0FFF80
01F800
01F800
01F800
03F800
03F800
03F800
03F800
03F800
03F000
03F000
03F000
07F000
07F000
07F000
3FF000
7FE000
FFE000
FFC000
FF8000
FF0000
200000
ENDCHAR
STARTCHAR circumflex
ENCODING 710
SWIDTH 603 0
DWIDTH 23 0
BBX 15 7 4 22
BITMAP
0FE0
7FFC
FFFE
FFFE
FFFE
7C7C
3018
ENDCHAR
STARTCHAR caron
ENCODING 711
SWIDTH 600 0
DWIDTH 23 0
BBX 15 7 4 22
BITMAP
783C
FFFE
FFFE
FFFE
FFFC
1FF0
0380
ENDCHAR
STARTCHAR dotaccent
ENCODING 729
SWIDTH 285 0
DWIDTH 11 0
BBX 7 6 2 27
BITMAP
7C
FE
FE
FE
FE
7C
ENDCHAR
STARTCHAR ring
ENCODING 730
SWIDTH 378 0
DWIDTH 14 0
BBX 10 10 2 25
BITMAP
1E00
3F80
7F80
E1C0
E1C0
E1C0
E1C0
7F80
3F80
1E00
ENDCHAR
STARTCHAR ogonek
ENCODING 731
SWIDTH 570 0
DWIDTH 22 0
BBX 7 8 7 -7
BITMAP
3C
FE
FE
E4
E4
FE
FE
7C
ENDCHAR
STARTCHAR tilde
ENCODING 732
SWIDTH 584 0
DWIDTH 22 0
BBX 15 7 3 22
BITMAP
3F1C
7FFE
7FFE
FFFE
FFFC
71F8
2060
ENDCHAR
STARTCHAR endash
ENCODING 8211
SWIDTH 561 0
DWIDTH 21 0
BBX 20 6 1 7
BITMAP
FFFFE0
FFFFF0
FFFFF0
FFFFF0
FFFFE0
7FFFC0
ENDCHAR
STARTCHAR emdash
ENCODING 8212
SWIDTH 693 0
DWIDTH 26 0
BBX 25 6 1 7
BITMAP
FFFFFF00
FFFFFF80
FFFFFF80
FFFFFF80
FFFFFF80
7FFFFE00
ENDCHAR
STARTCHAR quoteleft
ENCODING 8216
SWIDTH 237 0
DWIDTH 9 0
BBX 7 13 1 15
BITMAP
06
1E
3E
7C
78
78
FC
FE
FE
FE
FE
FE
7C
ENDCHAR
STARTCHAR quoteright
ENCODING 8217
SWIDTH 237 0
DWIDTH 9 0
BBX 7 13 1 15
BITMAP
7C
FE
FE
FE
FE
FE
7E
3E
3C
3C
F8
F8
E0
ENDCHAR
STARTCHAR quotesinglbase
ENCODING 8218
SWIDTH 237 0
DWIDTH 9 0
BBX 7 13 1 -6
BITMAP
7C
FE
FE
FE
FE
FE
7E
3E
3C
3C
F8
F0
E0
ENDCHAR
STARTCHAR quotedblleft
ENCODING 8220
SWIDTH 482 0
DWIDTH 18 0
BBX 16 13 1 15
BITMAP
0603
1E0F
3E1F
7C1E
783C
783C
FC3E
FE7F
FE7F
FE7F
FE7F
FE7F
7C3F
ENDCHAR
STARTCHAR quotedblright
ENCODING 8221
SWIDTH 482 0
DWIDTH 18 0
BBX 16 13 1 15
BITMAP
7C1E
FE3F
FE7F
FE7F
FE7F
FE7F
7E3F
3E0F
3C0F
3C1E
F83E
F87C
E078
ENDCHAR
STARTCHAR quotedblbase
ENCODING 8222
SWIDTH 482 0
DWIDTH 18 0
BBX 16 13 1 -6
BITMAP
7C3E
FE7F
FE7F
FE7F
FE7F
FE7F
7E3F
3E0F
3C0F
3C1E
F83C
F07C
E070
ENDCHAR
STARTCHAR dagger
ENCODING 8224
SWIDTH 527 0
DWIDTH 20 0
BBX 18 35 1 -7
BITMAP
03F000
03F000
03F000
03F000
03F000
03F000
03F000
03F000
23F100
FFFFC0
FFFFC0
FFFFC0
FFFFC0
FFFFC0
23F100
03F000
03F000
03F000
03F000
03F000
03F000
03F000
03F000
03F000
03F000
03F000
03F000
03F000
03F000
03F000
03F000
03F000
03F000
03F000
03F000
ENDCHAR
STARTCHAR daggerdbl
ENCODING 8225
SWIDTH 527 0
DWIDTH 20 0
BBX 18 35 1 -7
BITMAP
03F000
03F000
03F000
03F000
03F000
03F000
03F000
03F000
23F100
FFFFC0
FFFFC0
FFFFC0
FFFFC0
FFFFC0
23F100
03F000
03F000
03F000
03F000
03F000
7FFF80
FFFFC0
FFFFC0
FFFFC0
FFFFC0
FFFFC0
03F000
03F000
03F000
03F000
03F000
03F000
03F000
03F000
03F000
ENDCHAR
STARTCHAR bullet
ENCODING 8226
SWIDTH 342 0
DWIDTH 13 0
BBX 11 12 1 6
BITMAP
0E00
3F80
7FC0
FFE0
FFE0
FFE0
FFE0
FFE0
FFE0
7FC0
3F80
0400
ENDCHAR
STARTCHAR ellipsis
ENCODING 8230
SWIDTH 911 0
DWIDTH 35 0
BBX 33 7 1 0
BITMAP
7C03E03F00
FE07F03F00
FE07F03F80
FE07F03F80
FE07F03F80
FE07F03F00
7C03E01F00
ENDCHAR
STARTCHAR perthousand
ENCODING 8240
SWIDTH 1223 0
DWIDTH 46 0
BBX 43 31 2 -1
BITMAP
00000C000000
00000E000000
1F801E000000
3FC03C000000
7FE03C000000
FFF078000000
FFF078000000
F0F0F0000000
F0F0F0000000
F0F1E0000000
F0F1E0000000
F9F3C0000000
FFF380000000
7FE780000000
7FE700000000
1F8F00000000
000E1F803F00
001E3FE0FF80
001C7FE1FFC0
003CFFF1FFC0
0078FBF3F7E0
0078F0F3E1E0
00F0F0F3C1E0
00F0F0F3C1E0
01E0F0F3E3E0
01E0FFF3F7E0
03C0FFF1FFC0
03C07FE1FFC0
07803FE0FF80
07001F803F00
030000000000
ENDCHAR
STARTCHAR guilsinglleft
ENCODING 8249
SWIDTH 383 0
DWIDTH 15 0
BBX 13 20 1 0
BITMAP
00E0
01F0
03F8
07F8
0FF8
1FF0
3FE0
7FC0
FF80
FF00
FF00
FF80
7FC0
3FE0
1FF0
0FF8
07F8
03F8
01F0
00E0
ENDCHAR
STARTCHAR guilsinglright
ENCODING 8250
SWIDTH 383 0
DWIDTH 15 0
BBX 13 20 1 0
BITMAP
3000
7C00
FE00
FF00
FF80
7FC0
3FE0
1FF0
0FF0
07F8
07F8
0FF8
1FF0
3FE0
7FC0
FF80
FF00
FE00
7C00
3000
ENDCHAR
STARTCHAR fraction
ENCODING 8260
SWIDTH 433 0
DWIDTH 16 0
BBX 18 31 2 -1
BITMAP
000100
0003C0
000380
000780
000700
000F00
000E00
001E00
001C00
003C00
007800
007800
00F000
00F000
01E000
01E000
03C000
03C000
078000
070000
0F0000
0E0000
1E0000
1C0000
3C0000
380000
780000
F00000
F00000
E00000
E00000
ENDCHAR
STARTCHAR Euro
ENCODING 8364
SWIDTH 612 0
DWIDTH 23 0
BBX 21 29 1 0
BITMAP
003FF8
00FFF8
03FFF8
07FFF8
07FFF8
0FFFF8
0FF800
1FE000
1FC000
FFFFE0
FFFFE0
FFFFE0
FFFFE0
1F8000
1F8000
7FFFC0
FFFFE0
FFFFE0
FFFFE0
1FC000
1FC000
0FE000
0FFFE0
07FFF8
07FFF8
03FFF8
01FFF8
00FFF8
003FF0
ENDCHAR
STARTCHAR trademark
ENCODING 8482
SWIDTH 840 0
DWIDTH 32 0
BBX 29 15 1 9
BITMAP
FFF9E078
FFF9E0F8
FFF9F0F8
FFFBF9F8
0F83FFF8
0F83FFF8
0F83FFF8
0F83FFF8
0F83FFF8
0F83FFF8
0F83EF78
0F83E478
0F83E078
0F83E078
0701E078
ENDCHAR
STARTCHAR minus
ENCODING 8722
SWIDTH 581 0
DWIDTH 22 0
BBX 20 6 1 7
BITMAP
FFFFF0
FFFFF0
FFFFF0
FFFFF0
FFFFF0
3FFFC0
ENDCHAR
STARTCHAR f_f
ENCODING 64256
SWIDTH 803 0
DWIDTH 31 0
BBX 29 29 1 0
BITMAP
01FC0FF0
03FC1FF0
07FE3FF0
0FFE7FF0
0FFC7FF0
1FFC7FE0
1FC0FE00
1FC0FE00
1FC0FE00
FFFFFFF0
FFFFFFF8
FFFFFFF8
FFFFFFF8
FFFFFFF8
FFFFFFF8
7FFFFFC0
1FC0FE00
1FC0FE00
1FC0FE00
1FC0FE00
1FC0FE00
1FC0FE00
1FC0FE00
1FC0FE00
1FC0FE00
1FC0FE00
1FC0FE00
1FC07E00
0F807C00
ENDCHAR
STARTCHAR fi
ENCODING 64257
SWIDTH 709 0
DWIDTH 27 0
BBX 24 29 1 0
BITMAP
01FC3F
03FC3F
07FE3F
0FFE3F
0FFC3F
1FFC3F
1FC000
1FC000
1FC000
7FFE1E
FFFE3F
FFFE3F
FFFF3F
FFFE3F
FFFE3F
7FF83F
1FC03F
1FC03F
1FC03F
1FC03F
1FC03F
1FC03F
1FC03F
1FC03F
1FC03F
1FC03F
1FC03F
1FC03F
0F801F
ENDCHAR
STARTCHAR fl
ENCODING 64258
SWIDTH 774 0
DWIDTH 29 0
BBX 28 29 1 0
BITMAP
01FC3F00
03FC3F00
07FE7F00
0FFE7F00
0FFC7F00
1FFC7F00
1FC07F00
1FC07F00
1FC07F00
7FFE7F00
FFFE7F00
FFFE7F00
FFFF7F00
FFFE7F00
FFFE7F00
7FF87F00
1FC07F00
1FC07F00
1FC07F00
1FC07F00
1FC07F00
1FC07F00
1FC03F80
1FC03FF0
1FC03FF0
1FC03FF0
1FC03FF0
1FC01FF0
0F8007E0
ENDCHAR
STARTCHAR f_f_i
ENCODING 64259
SWIDTH 1059 0
DWIDTH 40 0
BBX 38 29 1 0
BITMAP
01FC0FF0F8
03FC1FF1FC
07FE3FF1FC
0FFE7FF1FC
0FFC7FF1FC
1FFC7FE0F8
1FC0FE0000
1FC0FE0000
1FC0FE0000
FFFFFFF0F8
FFFFFFF9F8
FFFFFFF9FC
FFFFFFF9FC
FFFFFFF9FC
FFFFFFF9FC
7FFFFFC1FC
1FC0FE01FC
1FC0FE01FC
1FC0FE01FC
1FC0FE01FC
1FC0FE01FC
1FC0FE01FC
1FC0FE01FC
1FC0FE01FC
1FC0FE01FC
1FC0FE01FC
1FC0FE01FC
1FC07E01FC
0F807C00F8
ENDCHAR
STARTCHAR .notdef
ENCODING -1
SWIDTH 500 0
DWIDTH 19 0
BBX 1 1 0 0
BITMAP
00
ENDCHAR
STARTCHAR .null
ENCODING -1
SWIDTH 0 0
DWIDTH 0 0
BBX 1 1 0 0
BITMAP
00
ENDCHAR
STARTCHAR nonmarkingreturn
ENCODING -1
SWIDTH 333 0
DWIDTH 13 0
BBX 1 1 0 0
BITMAP
00
ENDCHAR
STARTCHAR f_t
ENCODING -1
SWIDTH 814 0
DWIDTH 31 0
BBX 29 29 1 0
BITMAP
01FC0000
03FC0000
07FE3C00
0FFE7E00
0FFC7E00
1FFC7F00
1FC07F00
1FC07F00
1FC07F00
FFFFFFF0
FFFFFFF8
FFFFFFF8
FFFFFFF8
FFFFFFF8
FFFFFFF8
7FFFFFF0
1FC07F00
1FC07F00
1FC07F00
1FC07F00
1FC07F00
1FC07F00
1FC07F00
1FC07FF0
1FC07FF0
1FC03FF0
1FC01FF0
1FC00FF0
0F8003E0
ENDCHAR
STARTCHAR t_t
ENCODING -1
SWIDTH 794 0
DWIDTH 30 0
BBX 29 27 1 0
BITMAP
0F007C00
1F80FE00
1FC0FE00
1FC0FE00
1FC0FE00
1FC0FE00
1FC0FE00
FFFFFFF0
FFFFFFF0
FFFFFFF8
FFFFFFF8
FFFFFFF8
FFFFFFF0
7FFFFFE0
1FC0FE00
1FC0FE00
1FC0FE00
1FC0FE00
1FC0FE00
1FC0FE00
1FE0FF00
1FFCFFE0
0FFC7FE0
0FFC7FF0
07FC3FF0
03FC1FE0
00FC07E0
ENDCHAR
STARTCHAR l_l
ENCODING -1
SWIDTH 626 0
DWIDTH 24 0
BBX 21 29 2 0
BITMAP
FC3F00
FC3F00
FC3F00
FC3F00
FC3F00
FC3F00
FC3F00
FC3F00
FC3F00
FC3F00
FC3F00
FC3F00
FC3F00
FC3F00
FC3F00
FC3F00
FC3F00
FC3F00
FC3F00
FC3F00
FC3F00
FC3F00
FF3FF0
FFBFF8
FFBFF8
FF9FF8
7F9FF8
7F8FF8
1F03F0
ENDCHAR
STARTCHAR j_j
ENCODING -1
SWIDTH 521 0
DWIDTH 20 0
BBX 23 38 -5 -9
BITMAP
01F07E
01F87E
01F87E
01F87E
01F87E
01F87E
000000
000000
000000
01F03C
01F87E
01F87E
01F87E
01F87E
01F87E
01F87E
01F87E
01F87E
01F87E
01F87E
01F87E
01F87E
01F87E
01F87E
01F87E
01F87E
01F87E
01F87E
03F87E
03F87E
07F87E
7FF3FE
FFF7FE
FFE7FC
FFE7FC
FFC7F8
FF07F0
7803C0
ENDCHAR
ENDFONT
